<svg id="svg" version="1.1" xmlns="http://www.w3.org/2000/svg" xmlns:xlink="http://www.w3.org/1999/xlink" width="400" height="257.2827417380661" viewBox="0, 0, 400,257.2827417380661"><g id="svgg"><path id="path0" d="M67.687 33.308 C 67.283 33.444,66.181 33.761,65.239 34.013 C 64.296 34.265,62.313 34.814,60.832 35.234 C 59.351 35.653,57.754 36.100,57.283 36.225 C 56.812 36.350,55.710 36.669,54.835 36.934 C 53.960 37.198,52.528 37.595,51.652 37.815 C 47.342 38.898,45.696 40.516,45.669 43.696 C 45.629 48.443,49.948 50.344,55.814 48.162 C 56.016 48.087,56.897 47.844,57.772 47.622 C 59.226 47.254,60.045 47.029,64.137 45.876 C 67.991 44.789,68.851 44.664,69.136 45.146 C 69.281 45.393,69.951 46.327,70.624 47.220 C 71.297 48.114,72.339 49.559,72.938 50.432 C 74.023 52.014,78.792 58.628,80.338 60.695 C 80.785 61.293,81.812 62.735,82.619 63.899 C 83.427 65.062,84.451 66.501,84.895 67.095 C 85.999 68.576,90.324 74.580,97.717 84.895 C 98.750 86.336,99.923 87.965,100.324 88.514 C 101.039 89.491,101.050 89.551,100.844 91.329 C 100.728 92.328,100.629 95.595,100.623 98.588 L 100.612 104.030 99.939 104.180 C 99.569 104.263,98.329 104.603,97.185 104.935 C 88.148 107.561,83.517 111.753,80.865 119.706 C 80.460 120.921,80.409 122.175,80.342 132.497 L 80.267 143.941 77.985 143.941 C 75.511 143.941,74.391 144.259,73.531 145.205 C 72.471 146.371,72.460 146.486,72.460 156.251 C 72.460 169.740,70.288 168.279,90.471 168.365 C 102.905 168.418,105.998 168.370,105.999 168.120 C 106.003 167.039,107.063 160.836,107.338 160.284 C 107.521 159.915,107.744 159.254,107.832 158.815 C 108.053 157.723,108.631 156.055,109.298 154.590 C 109.604 153.917,110.038 152.955,110.261 152.452 C 112.633 147.119,118.596 140.267,123.990 136.676 C 127.305 134.469,128.824 133.724,134.394 131.577 C 148.444 126.160,167.928 131.769,178.192 144.186 C 178.915 145.061,179.578 145.832,179.664 145.900 C 179.750 145.967,180.245 146.683,180.762 147.491 C 181.280 148.299,181.951 149.345,182.254 149.816 C 182.719 150.539,184.353 153.860,185.085 155.569 C 186.049 157.817,187.194 162.520,187.529 165.606 C 187.675 166.952,187.876 168.137,187.975 168.239 C 188.074 168.341,197.402 168.396,208.704 168.361 L 229.253 168.299 229.316 167.197 C 230.158 152.364,241.299 137.562,255.569 132.318 C 256.579 131.946,257.625 131.546,257.895 131.428 C 258.164 131.310,259.155 131.048,260.098 130.844 C 261.040 130.641,262.417 130.338,263.158 130.172 C 264.877 129.785,275.789 129.791,277.356 130.180 C 277.962 130.330,279.284 130.636,280.294 130.859 C 281.304 131.082,282.240 131.350,282.375 131.455 C 282.509 131.559,283.005 131.727,283.476 131.827 C 283.947 131.927,284.550 132.160,284.816 132.345 C 285.081 132.529,285.438 132.681,285.607 132.681 C 285.945 132.681,287.939 133.629,290.139 134.836 C 296.853 138.518,303.453 145.385,306.657 152.020 C 307.069 152.872,308.075 155.140,308.539 156.263 C 309.181 157.814,310.601 163.548,310.764 165.245 C 310.848 166.117,310.972 167.191,311.040 167.632 L 311.163 168.433 324.328 168.366 L 337.493 168.299 338.392 167.613 C 340.052 166.346,340.024 166.542,340.024 156.108 L 340.024 146.707 339.291 145.695 C 338.345 144.389,337.244 143.941,334.976 143.941 C 333.983 143.941,333.170 143.890,333.170 143.826 C 333.170 142.344,332.038 136.859,330.863 132.653 C 328.198 123.107,321.133 113.801,313.368 109.608 C 312.613 109.200,311.830 108.739,311.628 108.583 C 311.426 108.428,310.600 108.040,309.792 107.722 C 308.984 107.405,307.882 106.945,307.344 106.701 C 302.159 104.351,294.004 103.315,280.618 103.309 L 273.230 103.305 272.784 102.697 C 272.539 102.362,271.924 101.509,271.418 100.800 C 269.395 97.966,268.539 96.775,265.483 92.537 C 263.733 90.109,261.475 86.968,260.465 85.556 C 259.455 84.145,257.638 81.603,256.426 79.909 C 248.195 68.399,245.393 65.365,239.068 61.119 C 236.992 59.725,231.945 57.041,231.392 57.036 C 231.293 57.036,230.924 56.885,230.573 56.702 C 229.002 55.882,224.232 54.568,220.451 53.914 C 216.577 53.243,136.130 53.261,132.803 53.933 C 126.781 55.150,122.453 57.203,117.914 60.997 C 114.060 64.219,112.807 65.853,107.649 74.386 C 106.547 76.209,105.804 77.048,105.574 76.729 C 105.470 76.586,104.394 75.110,103.182 73.447 C 101.971 71.785,100.480 69.699,99.870 68.811 C 98.635 67.015,96.024 63.388,95.244 62.386 C 94.966 62.029,92.777 58.999,90.379 55.654 C 80.113 41.333,76.817 36.782,76.011 35.818 C 74.287 33.755,70.104 32.494,67.687 33.308 M175.153 83.966 L 175.153 103.182 143.489 103.244 L 111.825 103.307 111.937 96.880 C 112.007 92.825,112.159 90.091,112.348 89.474 C 112.882 87.730,114.389 84.363,115.160 83.190 C 115.574 82.562,116.463 81.148,117.136 80.047 C 117.809 78.947,118.729 77.478,119.180 76.783 C 119.632 76.089,120.172 75.190,120.380 74.787 C 122.077 71.510,127.271 67.130,130.702 66.084 C 131.184 65.937,131.799 65.711,132.069 65.583 C 133.829 64.742,135.737 64.671,155.569 64.710 L 175.153 64.749 175.153 83.966 M218.612 64.981 C 229.267 66.588,237.246 71.819,244.069 81.673 C 244.525 82.331,247.655 86.689,248.470 87.800 C 248.807 88.259,249.629 89.429,250.297 90.400 C 250.965 91.372,251.859 92.607,252.283 93.146 C 252.707 93.684,253.476 94.731,253.991 95.471 C 255.514 97.662,256.099 98.486,257.711 100.713 C 258.553 101.876,259.241 102.934,259.241 103.066 C 259.241 103.220,246.193 103.305,222.399 103.305 L 185.557 103.305 185.557 83.966 L 185.557 64.627 200.918 64.628 C 213.018 64.629,216.774 64.704,218.612 64.981 M144.176 140.359 C 144.103 140.433,143.222 140.617,142.217 140.769 C 132.391 142.247,122.645 149.876,119.240 158.752 C 118.931 159.559,118.471 160.729,118.219 161.352 C 116.697 165.112,116.532 174.464,117.912 178.703 C 120.321 186.101,124.009 191.196,130.019 195.430 C 130.911 196.059,131.725 196.573,131.828 196.573 C 131.930 196.573,132.561 196.909,133.229 197.320 C 133.897 197.731,135.948 198.579,137.785 199.204 L 141.126 200.341 146.879 200.354 C 151.721 200.365,152.825 200.300,153.856 199.944 C 154.529 199.711,155.961 199.231,157.038 198.878 C 162.258 197.166,166.479 194.091,171.022 188.690 C 183.622 173.711,175.729 148.200,156.564 141.958 C 152.875 140.756,144.811 139.716,144.176 140.359 M265.622 140.654 C 261.708 141.384,255.350 143.779,254.008 145.029 C 253.855 145.171,253.125 145.696,252.385 146.196 C 243.095 152.468,238.024 165.910,240.724 177.111 C 246.263 200.097,274.270 208.447,291.074 192.123 C 308.788 174.916,299.458 145.037,275.031 140.742 C 272.520 140.301,267.756 140.256,265.622 140.654 M151.775 152.154 C 160.271 154.158,166.726 163.166,165.873 171.833 C 165.674 173.855,165.224 176.301,164.991 176.622 C 164.893 176.756,164.673 177.302,164.501 177.833 C 161.027 188.607,145.614 193.067,135.985 186.085 C 118.891 173.689,131.172 147.297,151.775 152.154 M273.371 151.872 C 278.082 152.580,282.395 155.226,285.478 159.299 C 286.632 160.823,288.127 163.659,288.127 164.323 C 288.127 164.503,288.231 164.756,288.358 164.884 C 289.015 165.546,289.347 171.739,288.862 174.293 C 286.650 185.960,273.120 192.995,262.530 187.986 C 261.982 187.727,261.458 187.515,261.365 187.515 C 261.169 187.515,259.075 186.078,257.675 184.981 C 251.152 179.876,249.282 169.222,253.529 161.372 C 257.367 154.278,265.014 150.617,273.371 151.872 M143.980 162.857 C 135.573 166.078,137.975 178.569,147.001 178.569 C 155.665 178.569,158.360 167.007,150.571 163.254 C 149.954 162.957,149.258 162.621,149.024 162.507 C 148.248 162.131,145.350 162.332,143.980 162.857 M267.201 162.833 C 266.530 163.097,265.924 163.400,265.855 163.505 C 265.785 163.611,265.481 163.827,265.180 163.985 C 263.048 165.108,261.444 169.292,262.085 172.057 C 263.919 179.964,274.307 181.157,277.684 173.850 C 278.454 172.185,278.435 168.765,277.648 167.157 C 277.035 165.906,275.268 163.770,274.845 163.770 C 274.699 163.770,274.406 163.623,274.193 163.444 C 272.816 162.283,269.359 161.981,267.201 162.833 " stroke="none" fill="#580663" fill-rule="evenodd"></path><path id="path1" d="M0.000 128.641 L 0.000 257.283 200.000 257.283 L 400.000 257.283 400.000 128.641 L 400.000 0.000 200.000 0.000 L 0.000 0.000 0.000 128.641 M73.439 33.414 C 75.170 34.305,76.398 35.579,78.990 39.172 C 80.448 41.193,82.491 44.029,83.531 45.475 C 84.572 46.920,85.510 48.213,85.616 48.348 C 85.813 48.597,87.274 50.634,88.913 52.943 C 89.413 53.647,90.221 54.774,90.709 55.447 C 91.196 56.120,93.023 58.654,94.767 61.077 C 96.512 63.501,98.353 66.034,98.860 66.707 C 99.366 67.381,100.302 68.703,100.940 69.645 C 101.578 70.588,102.586 72.020,103.180 72.827 C 103.774 73.635,104.569 74.760,104.946 75.328 C 105.865 76.713,106.064 76.559,108.034 72.950 C 108.291 72.479,109.000 71.322,109.610 70.379 C 111.440 67.550,111.805 66.971,112.027 66.548 C 113.710 63.349,121.603 57.063,125.522 55.800 C 126.026 55.638,126.548 55.421,126.683 55.318 C 126.986 55.086,129.740 54.271,132.191 53.687 C 134.819 53.061,214.735 52.875,219.339 53.484 C 222.422 53.892,226.105 54.692,227.364 55.227 C 227.807 55.415,228.311 55.569,228.485 55.569 C 229.383 55.569,237.131 59.168,237.694 59.847 C 237.864 60.052,238.107 60.220,238.233 60.220 C 238.358 60.220,239.199 60.731,240.100 61.355 C 245.434 65.048,249.207 69.036,254.464 76.537 C 256.130 78.914,258.176 81.778,258.635 82.375 C 258.842 82.644,259.421 83.455,259.922 84.177 C 260.423 84.899,261.119 85.835,261.470 86.257 C 261.820 86.680,262.251 87.300,262.427 87.635 C 262.604 87.970,263.255 88.906,263.875 89.716 C 264.979 91.157,265.249 91.531,266.446 93.268 C 266.770 93.739,267.320 94.445,267.667 94.836 C 268.015 95.227,268.299 95.686,268.299 95.856 C 268.299 96.026,268.388 96.202,268.497 96.246 C 268.605 96.291,269.073 96.867,269.537 97.526 C 270.000 98.185,270.744 99.232,271.189 99.852 C 271.634 100.472,272.269 101.392,272.599 101.897 L 273.201 102.815 280.485 102.815 C 290.214 102.815,296.879 103.253,298.776 104.017 C 299.045 104.125,300.510 104.453,302.032 104.744 C 303.553 105.036,304.985 105.371,305.214 105.488 C 305.806 105.793,307.479 106.429,308.201 106.624 C 312.578 107.807,320.575 113.786,324.060 118.482 C 326.350 121.569,326.457 121.729,327.469 123.623 C 328.008 124.633,328.597 125.734,328.777 126.071 C 328.957 126.408,329.347 127.344,329.643 128.152 C 329.939 128.960,330.404 130.171,330.675 130.845 C 330.947 131.518,331.407 133.115,331.698 134.394 C 331.989 135.673,332.382 137.076,332.570 137.511 C 332.759 137.946,333.048 139.516,333.213 140.999 L 333.513 143.696 335.385 143.696 C 337.632 143.696,338.548 144.087,339.553 145.474 L 340.269 146.463 340.269 156.123 C 340.269 167.050,340.280 166.984,338.312 168.116 L 337.357 168.666 324.119 168.666 L 310.881 168.666 310.643 168.038 C 310.511 167.693,310.404 166.962,310.404 166.415 C 310.404 164.745,309.673 160.524,309.204 159.486 C 308.961 158.947,308.511 157.681,308.205 156.671 C 307.899 155.661,307.556 154.670,307.442 154.468 C 306.946 153.584,305.753 151.077,305.753 150.918 C 305.753 150.822,305.437 150.342,305.052 149.852 C 304.666 149.361,304.177 148.620,303.965 148.205 C 303.305 146.914,301.217 144.395,298.637 141.778 C 295.954 139.057,293.293 137.090,288.984 134.645 C 287.380 133.735,283.751 132.250,282.130 131.840 C 281.187 131.601,279.810 131.203,279.070 130.955 C 275.356 129.711,265.060 129.670,261.444 130.885 C 260.838 131.089,259.517 131.464,258.507 131.719 C 257.497 131.974,256.010 132.476,255.202 132.834 C 254.394 133.192,253.348 133.651,252.876 133.853 C 251.886 134.279,251.796 134.326,249.747 135.502 C 245.284 138.065,239.787 143.009,237.506 146.512 C 237.156 147.050,236.683 147.711,236.456 147.980 C 236.228 148.250,235.628 149.241,235.122 150.184 C 234.616 151.126,234.053 152.071,233.870 152.284 C 233.687 152.496,233.537 152.815,233.537 152.991 C 233.537 153.304,232.938 154.695,232.056 156.426 C 231.817 156.897,231.505 157.834,231.364 158.507 C 230.723 161.562,230.385 162.969,230.122 163.680 C 229.966 164.101,229.761 165.368,229.668 166.495 L 229.498 168.543 208.704 168.606 C 197.267 168.640,187.828 168.585,187.728 168.484 C 187.628 168.382,187.417 167.087,187.259 165.606 C 187.101 164.125,186.832 162.638,186.661 162.301 C 186.489 161.965,186.271 161.193,186.176 160.588 C 185.917 158.946,185.048 156.113,184.667 155.672 C 184.483 155.460,184.333 155.167,184.333 155.022 C 184.333 154.738,183.069 151.971,182.571 151.163 C 182.405 150.894,181.665 149.682,180.928 148.470 C 180.190 147.258,179.513 146.212,179.424 146.144 C 179.335 146.077,178.712 145.361,178.039 144.553 C 174.701 140.545,169.727 136.523,165.728 134.600 C 160.764 132.213,156.828 130.923,152.632 130.309 C 150.014 129.925,142.201 130.016,140.024 130.455 C 136.562 131.154,130.554 133.220,128.397 134.455 C 120.796 138.804,114.653 144.775,111.458 150.918 C 110.325 153.096,109.430 155.198,108.694 157.405 C 108.268 158.684,107.820 159.951,107.700 160.220 C 107.436 160.810,106.705 165.293,106.553 167.258 L 106.444 168.666 90.712 168.666 L 74.981 168.666 74.155 168.109 C 72.161 166.766,72.215 167.097,72.215 156.255 C 72.215 145.919,72.221 145.870,73.477 144.798 C 74.612 143.830,75.113 143.696,77.598 143.696 L 80.049 143.696 80.060 132.864 C 80.065 126.906,80.167 121.591,80.286 121.053 C 81.192 116.929,83.128 113.090,85.346 111.016 C 87.630 108.880,89.350 107.628,91.187 106.763 C 94.183 105.352,95.047 105.036,96.940 104.656 C 100.439 103.953,100.121 104.586,100.130 98.306 C 100.135 95.333,100.237 92.136,100.357 91.202 C 100.572 89.534,100.562 89.484,99.798 88.395 C 98.340 86.314,97.428 85.068,97.096 84.700 C 96.914 84.498,96.446 83.840,96.057 83.238 C 95.667 82.636,95.204 81.975,95.027 81.769 C 94.850 81.564,93.892 80.239,92.899 78.825 C 90.738 75.749,90.199 75.000,87.967 71.971 C 87.025 70.692,86.044 69.315,85.789 68.911 C 85.533 68.507,85.265 68.121,85.194 68.054 C 84.981 67.852,83.155 65.319,82.371 64.137 C 81.969 63.531,81.554 62.925,81.450 62.791 C 80.785 61.936,79.133 59.703,78.825 59.244 C 78.623 58.942,77.839 57.854,77.082 56.826 C 76.326 55.798,74.813 53.690,73.721 52.142 C 72.628 50.594,71.573 49.106,71.375 48.837 C 71.178 48.568,70.597 47.779,70.086 47.084 C 69.574 46.390,69.044 45.636,68.908 45.409 C 68.677 45.023,68.567 45.023,67.195 45.405 C 66.388 45.630,65.122 45.966,64.382 46.152 C 61.658 46.836,60.086 47.275,59.608 47.486 C 59.339 47.604,58.513 47.833,57.772 47.993 C 57.032 48.154,56.206 48.372,55.936 48.478 C 55.667 48.583,54.445 48.916,53.222 49.218 L 50.997 49.766 49.522 49.267 C 46.644 48.296,45.410 46.622,45.415 43.696 C 45.421 40.283,47.227 38.407,51.408 37.472 C 52.148 37.307,52.919 37.106,53.121 37.026 C 53.323 36.946,54.259 36.674,55.202 36.420 C 56.144 36.167,57.521 35.792,58.262 35.586 C 59.002 35.380,60.269 35.055,61.077 34.862 C 61.885 34.670,62.718 34.416,62.928 34.297 C 63.138 34.178,63.964 33.947,64.764 33.783 C 65.563 33.619,66.328 33.398,66.463 33.292 C 67.274 32.656,72.130 32.741,73.439 33.414 M134.793 65.257 C 133.599 65.442,132.498 65.688,132.345 65.802 C 132.193 65.916,131.628 66.136,131.089 66.291 C 127.769 67.243,123.045 71.104,120.942 74.586 C 120.388 75.504,119.447 77.026,118.852 77.968 C 118.258 78.911,117.585 80.012,117.357 80.416 C 117.130 80.820,116.462 81.890,115.874 82.794 C 115.286 83.698,114.690 84.741,114.549 85.112 C 114.408 85.482,114.162 85.942,114.003 86.134 C 112.959 87.392,112.145 92.543,112.130 97.980 L 112.118 102.815 143.574 102.815 L 175.031 102.815 175.031 83.843 L 175.031 64.871 155.998 64.895 C 141.129 64.914,136.490 64.993,134.793 65.257 M185.802 83.827 L 185.802 102.815 222.154 102.815 C 254.304 102.815,258.507 102.773,258.507 102.448 C 258.507 102.246,258.422 102.081,258.319 102.081 C 258.216 102.081,257.771 101.558,257.331 100.918 C 256.891 100.278,256.199 99.315,255.793 98.776 C 255.029 97.760,253.426 95.461,252.999 94.767 C 252.864 94.549,252.258 93.727,251.652 92.942 C 251.047 92.156,250.383 91.214,250.177 90.848 C 249.972 90.482,249.503 89.859,249.137 89.463 C 248.770 89.068,248.470 88.619,248.470 88.466 C 248.470 88.313,248.290 88.038,248.071 87.856 C 247.851 87.674,247.166 86.751,246.548 85.806 C 245.930 84.861,245.296 83.978,245.138 83.843 C 244.980 83.709,244.565 83.158,244.215 82.619 C 243.567 81.622,243.385 81.373,241.268 78.580 C 239.542 76.303,234.233 71.236,233.573 71.236 C 233.440 71.236,233.019 70.975,232.638 70.655 C 231.754 69.913,228.703 68.301,226.805 67.573 C 225.998 67.263,225.116 66.912,224.847 66.794 C 221.298 65.237,219.123 65.063,201.775 64.947 L 185.802 64.840 185.802 83.827 M152.664 140.582 C 161.898 142.311,170.734 149.096,174.410 157.283 C 174.773 158.091,175.172 158.972,175.295 159.241 C 177.748 164.569,178.071 174.142,175.993 179.927 C 175.066 182.508,174.575 183.641,173.714 185.190 C 172.476 187.416,170.914 189.649,170.478 189.816 C 170.289 189.889,170.135 190.073,170.135 190.227 C 170.135 191.250,163.640 196.484,160.976 197.609 C 160.291 197.898,159.463 198.305,159.135 198.513 C 158.376 198.995,155.308 200.000,154.596 200.000 C 154.297 200.000,153.678 200.187,153.220 200.416 C 151.559 201.245,141.024 201.097,140.160 200.233 C 140.031 200.105,139.671 200.000,139.359 200.000 C 137.697 200.000,132.646 197.689,129.544 195.509 C 124.184 191.743,119.433 185.442,118.104 180.337 C 117.887 179.505,117.609 178.634,117.484 178.400 C 117.360 178.166,117.258 177.720,117.258 177.408 C 117.258 177.097,117.148 176.732,117.013 176.597 C 116.257 175.841,116.343 166.571,117.130 163.999 C 117.353 163.267,117.746 161.897,118.003 160.955 C 118.498 159.137,120.253 155.450,121.243 154.147 C 121.570 153.717,122.008 153.035,122.216 152.632 C 122.623 151.844,127.042 147.118,127.368 147.122 C 127.476 147.123,127.961 146.738,128.446 146.267 C 128.931 145.796,129.460 145.410,129.620 145.410 C 129.781 145.410,130.109 145.193,130.349 144.927 C 130.590 144.661,131.020 144.372,131.305 144.286 C 131.590 144.199,131.989 143.994,132.191 143.829 C 132.631 143.471,136.807 141.689,138.188 141.270 C 142.151 140.069,148.347 139.774,152.664 140.582 M276.010 140.588 C 282.740 141.851,289.969 146.204,294.002 151.422 C 295.644 153.546,297.430 156.461,297.430 157.017 C 297.430 157.142,297.579 157.418,297.761 157.631 C 298.063 157.983,298.685 159.662,299.716 162.913 C 300.266 164.644,300.936 170.291,300.748 171.603 C 300.661 172.209,300.483 173.641,300.352 174.786 C 299.126 185.498,290.722 195.721,280.139 199.376 C 279.144 199.719,278.074 200.000,277.759 200.000 C 277.444 200.000,276.812 200.193,276.353 200.428 C 275.634 200.798,274.783 200.857,270.135 200.857 C 265.486 200.857,264.635 200.798,263.916 200.428 C 263.458 200.193,262.839 200.000,262.540 200.000 C 261.295 200.000,254.651 197.265,254.226 196.578 C 254.151 196.457,253.504 196.023,252.788 195.613 C 251.575 194.919,247.172 190.804,246.203 189.460 C 245.967 189.131,245.514 188.531,245.198 188.127 C 244.881 187.723,244.428 187.007,244.191 186.536 C 243.954 186.065,243.622 185.514,243.454 185.312 C 243.286 185.110,242.848 184.229,242.481 183.354 C 242.114 182.479,241.702 181.551,241.565 181.293 C 239.772 177.918,239.174 167.394,240.530 163.060 C 241.553 159.787,242.242 157.895,242.408 157.895 C 242.511 157.895,242.595 157.755,242.595 157.585 C 242.595 155.355,251.400 145.165,253.327 145.165 C 253.483 145.165,253.611 145.067,253.611 144.948 C 253.611 144.645,259.417 141.815,260.465 141.607 C 260.936 141.513,261.432 141.351,261.567 141.245 C 261.701 141.140,262.913 140.868,264.259 140.640 C 265.606 140.413,266.763 140.172,266.830 140.105 C 267.075 139.860,274.105 140.230,276.010 140.588 M145.288 151.931 C 143.333 152.152,141.236 152.576,141.112 152.776 C 141.037 152.899,140.789 153.002,140.561 153.006 C 140.333 153.011,139.541 153.319,138.800 153.691 C 132.448 156.885,128.237 163.625,128.222 170.624 C 128.218 172.694,129.190 176.941,130.009 178.432 C 130.755 179.790,132.132 181.940,132.361 182.104 C 132.474 182.186,132.865 182.616,133.230 183.060 C 134.317 184.383,136.376 186.025,137.944 186.818 C 138.752 187.227,139.586 187.717,139.799 187.906 C 140.012 188.095,140.460 188.250,140.795 188.250 C 141.130 188.250,142.003 188.428,142.734 188.647 C 144.608 189.207,149.136 189.194,151.530 188.621 C 153.319 188.193,153.762 188.012,156.303 186.668 C 159.078 185.200,162.514 181.511,163.734 178.689 C 164.051 177.956,164.457 177.026,164.638 176.622 C 169.054 166.730,160.787 153.471,149.305 152.031 C 147.294 151.779,146.752 151.766,145.288 151.931 M268.421 151.924 C 266.117 152.249,264.537 152.557,264.178 152.750 C 263.953 152.870,263.109 153.264,262.301 153.625 C 256.230 156.341,251.907 162.658,251.507 169.400 C 251.325 172.470,252.092 176.843,253.009 177.968 C 253.173 178.170,253.391 178.611,253.493 178.947 C 253.745 179.778,255.712 182.513,256.925 183.718 C 266.827 193.554,284.100 189.273,288.024 176.010 C 288.699 173.726,288.692 167.293,288.011 164.994 C 286.635 160.347,282.546 155.683,278.091 153.679 C 277.215 153.285,276.320 152.868,276.100 152.752 C 275.142 152.246,270.036 151.696,268.421 151.924 M149.799 162.441 C 155.542 164.441,157.369 171.961,153.170 176.323 C 150.182 179.429,145.623 180.065,142.550 177.807 C 142.121 177.492,141.657 177.234,141.517 177.234 C 141.378 177.234,140.828 176.643,140.295 175.922 C 135.120 168.917,141.679 159.613,149.799 162.441 M273.198 162.547 C 273.937 162.817,274.578 163.147,274.623 163.281 C 274.667 163.415,274.846 163.525,275.020 163.525 C 275.193 163.525,275.763 163.993,276.286 164.565 C 282.004 170.828,276.985 180.260,268.636 178.940 C 265.633 178.465,262.577 175.893,262.052 173.399 C 261.972 173.017,261.791 172.248,261.650 171.689 C 260.987 169.056,262.482 165.792,265.503 163.280 C 266.953 162.074,270.880 161.700,273.198 162.547 " stroke="none" fill="#fbfbfb" fill-rule="evenodd"></path><path id="path2" d="M73.181 33.797 C 73.779 34.068,74.433 34.424,74.635 34.587 C 74.926 34.822,74.963 34.819,74.816 34.574 C 74.597 34.209,72.864 33.290,72.409 33.298 C 72.235 33.301,72.582 33.525,73.181 33.797 M76.245 36.108 C 77.770 38.025,78.125 38.353,77.117 36.915 C 76.673 36.281,76.033 35.510,75.693 35.201 C 75.354 34.892,75.602 35.300,76.245 36.108 M50.796 37.814 C 49.481 38.248,49.998 38.265,51.530 37.838 C 52.203 37.651,52.534 37.496,52.264 37.495 C 51.995 37.493,51.334 37.637,50.796 37.814 M78.026 38.494 C 78.158 38.663,78.904 39.682,79.684 40.759 C 81.110 42.730,81.780 43.549,81.385 42.840 C 80.997 42.141,78.051 38.188,77.919 38.188 C 77.846 38.188,77.894 38.326,78.026 38.494 M47.152 39.658 C 46.665 40.197,46.267 40.718,46.267 40.815 C 46.267 40.913,46.604 40.584,47.016 40.084 C 47.428 39.585,47.951 39.067,48.178 38.934 C 48.406 38.802,48.468 38.690,48.315 38.686 C 48.162 38.681,47.639 39.119,47.152 39.658 M81.698 43.635 C 81.830 43.804,82.576 44.823,83.356 45.900 C 84.804 47.902,85.429 48.662,85.066 47.980 C 84.731 47.353,81.720 43.329,81.586 43.329 C 81.515 43.329,81.566 43.467,81.698 43.635 M66.639 45.153 C 65.928 45.325,65.267 45.553,65.170 45.660 C 65.073 45.768,65.176 45.790,65.397 45.711 C 66.692 45.248,68.888 44.974,68.984 45.263 C 69.039 45.429,69.351 45.861,69.675 46.222 C 70.222 46.830,70.217 46.801,69.606 45.838 C 68.878 44.691,68.707 44.652,66.639 45.153 M62.056 46.421 C 61.518 46.609,60.598 46.878,60.012 47.020 C 59.426 47.162,58.986 47.318,59.034 47.366 C 59.154 47.485,61.836 46.839,63.035 46.401 C 63.574 46.204,63.794 46.052,63.525 46.062 C 63.256 46.073,62.595 46.234,62.056 46.421 M46.490 46.960 C 46.622 47.207,46.922 47.565,47.157 47.756 C 47.421 47.971,47.362 47.800,47.002 47.307 C 46.359 46.429,46.118 46.266,46.490 46.960 M70.898 47.980 C 71.254 48.519,71.647 48.960,71.770 48.960 C 71.893 48.960,71.640 48.519,71.207 47.980 C 70.774 47.442,70.382 47.001,70.335 47.001 C 70.288 47.001,70.542 47.442,70.898 47.980 M47.867 48.284 C 48.020 48.681,49.923 49.465,50.656 49.432 C 50.867 49.423,50.490 49.247,49.816 49.043 C 49.143 48.838,48.395 48.494,48.153 48.278 C 47.750 47.917,47.727 47.918,47.867 48.284 M55.679 48.182 C 55.551 48.293,54.586 48.580,53.533 48.819 C 52.481 49.058,51.669 49.302,51.728 49.362 C 51.849 49.483,54.931 48.787,55.692 48.467 C 55.961 48.354,56.346 48.207,56.548 48.140 C 56.795 48.059,56.751 48.013,56.414 48.000 C 56.138 47.989,55.807 48.071,55.679 48.182 M86.317 50.000 C 87.579 51.671,88.079 52.247,87.753 51.652 C 87.429 51.062,85.418 48.470,85.284 48.470 C 85.216 48.470,85.681 49.159,86.317 50.000 M71.971 49.274 C 71.971 49.500,74.166 52.598,74.451 52.774 C 74.587 52.858,74.124 52.117,73.423 51.127 C 71.958 49.057,71.971 49.073,71.971 49.274 M88.639 53.182 C 89.076 53.822,89.475 54.345,89.524 54.345 C 89.690 54.345,89.135 53.493,88.487 52.754 C 88.000 52.198,88.037 52.302,88.639 53.182 M74.799 53.366 C 74.913 53.568,75.731 54.725,76.616 55.936 C 77.501 57.148,78.539 58.605,78.922 59.174 C 79.305 59.744,79.789 60.349,79.998 60.521 C 80.419 60.866,79.372 59.327,76.797 55.814 C 75.120 53.526,74.372 52.610,74.799 53.366 M134.761 53.371 C 132.487 53.706,130.357 54.160,129.988 54.387 C 129.703 54.563,129.730 54.587,130.110 54.497 C 131.667 54.127,135.027 53.563,136.720 53.388 C 138.364 53.219,138.462 53.187,137.332 53.188 C 136.591 53.189,135.435 53.271,134.761 53.371 M215.912 53.373 C 218.183 53.593,222.646 54.239,223.623 54.488 C 224.003 54.585,224.030 54.562,223.745 54.384 C 223.187 54.036,218.527 53.360,215.912 53.247 L 213.586 53.148 215.912 53.373 M90.352 55.569 C 91.332 56.918,91.699 57.321,91.357 56.671 C 91.215 56.401,90.751 55.796,90.325 55.324 L 89.552 54.468 90.352 55.569 M126.500 55.469 C 125.285 55.909,124.041 56.559,124.170 56.687 C 124.265 56.782,124.779 56.572,127.050 55.511 C 128.079 55.031,127.774 55.007,126.500 55.469 M226.438 55.168 C 226.438 55.216,227.237 55.504,228.213 55.808 C 229.189 56.111,230.092 56.457,230.220 56.576 C 230.348 56.696,230.566 56.793,230.703 56.793 C 231.264 56.793,229.883 56.097,228.345 55.605 C 226.661 55.066,226.438 55.015,226.438 55.168 M122.277 57.469 C 121.873 57.678,121.505 57.944,121.459 58.060 C 121.413 58.177,121.028 58.451,120.602 58.670 C 118.146 59.933,113.832 64.112,111.914 67.087 C 109.621 70.643,108.271 72.812,107.197 74.663 C 106.768 75.404,106.195 76.203,105.925 76.438 C 105.654 76.674,105.552 76.867,105.698 76.867 C 106.010 76.867,106.561 76.163,107.649 74.377 C 111.873 67.438,112.344 66.739,114.440 64.302 C 115.922 62.579,119.670 59.395,121.405 58.384 C 123.537 57.143,124.144 56.505,122.277 57.469 M233.390 57.911 C 234.318 58.379,235.118 58.722,235.166 58.674 C 235.269 58.570,232.167 57.032,231.890 57.050 C 231.786 57.056,232.461 57.444,233.390 57.911 M92.440 58.568 C 94.003 60.734,95.494 62.668,95.602 62.668 C 95.659 62.668,94.814 61.457,93.725 59.976 C 92.636 58.494,91.693 57.283,91.629 57.283 C 91.565 57.283,91.930 57.861,92.440 58.568 M235.985 59.088 C 235.985 59.146,236.377 59.424,236.857 59.707 C 237.336 59.990,237.660 60.110,237.576 59.974 C 237.412 59.709,235.985 58.914,235.985 59.088 M239.046 61.078 C 239.719 61.550,240.930 62.404,241.738 62.975 C 245.603 65.710,249.417 70.107,256.426 79.909 C 257.638 81.603,259.455 84.142,260.465 85.551 C 261.475 86.959,262.890 88.941,263.610 89.955 C 264.330 90.970,264.974 91.799,265.041 91.799 C 265.108 91.799,264.786 91.276,264.327 90.636 C 263.868 89.997,263.067 88.868,262.549 88.127 C 262.030 87.387,260.991 85.928,260.240 84.886 C 259.489 83.844,257.882 81.604,256.671 79.909 C 248.542 68.539,245.842 65.570,239.821 61.383 C 238.902 60.744,238.076 60.220,237.986 60.220 C 237.896 60.220,238.373 60.606,239.046 61.078 M81.108 62.118 C 81.603 62.824,82.411 63.981,82.904 64.688 C 83.717 65.854,84.765 67.298,85.258 67.931 C 85.583 68.349,91.090 75.987,93.023 78.702 C 94.033 80.120,95.001 81.471,95.175 81.705 C 95.348 81.939,95.872 82.672,96.338 83.336 C 96.804 83.999,97.185 84.463,97.185 84.366 C 97.185 84.179,95.908 82.322,93.146 78.496 C 92.203 77.190,90.142 74.334,88.565 72.149 C 86.988 69.964,85.212 67.515,84.618 66.707 C 84.024 65.900,82.958 64.385,82.248 63.342 C 81.538 62.299,80.789 61.308,80.584 61.139 C 80.378 60.970,80.614 61.411,81.108 62.118 M95.937 63.280 C 96.077 63.550,96.423 64.045,96.705 64.382 C 97.055 64.799,97.137 64.838,96.963 64.504 C 96.824 64.235,96.478 63.739,96.196 63.403 C 95.846 62.985,95.764 62.946,95.937 63.280 M135.251 64.804 C 133.866 65.002,134.147 65.265,135.556 65.089 C 136.331 64.992,145.529 64.903,155.998 64.892 L 175.031 64.871 175.031 83.965 L 175.031 103.058 143.513 103.122 L 111.995 103.185 143.574 103.184 L 175.153 103.182 175.153 83.966 L 175.153 64.749 155.569 64.724 C 144.798 64.710,135.655 64.746,135.251 64.804 M186.659 64.789 C 189.286 64.944,218.900 64.984,217.748 64.832 C 217.075 64.743,209.529 64.680,200.979 64.693 C 192.430 64.707,185.985 64.750,186.659 64.789 M98.675 67.075 C 99.655 68.424,100.022 68.826,99.680 68.176 C 99.538 67.907,99.074 67.301,98.649 66.830 L 97.875 65.973 98.675 67.075 M225.077 66.687 C 225.339 66.900,225.724 67.075,225.934 67.076 C 226.144 67.077,226.631 67.242,227.017 67.443 C 227.827 67.866,227.990 67.896,227.799 67.587 C 227.679 67.393,227.173 67.184,225.092 66.469 C 224.609 66.303,224.609 66.306,225.077 66.687 M125.182 69.339 C 124.147 70.181,122.918 71.365,122.452 71.971 L 121.605 73.072 122.637 71.912 C 123.205 71.274,124.403 70.180,125.299 69.481 C 127.325 67.901,127.431 67.809,127.228 67.809 C 127.138 67.809,126.217 68.498,125.182 69.339 M228.886 68.174 C 228.886 68.341,230.385 69.085,230.497 68.973 C 230.550 68.919,230.209 68.693,229.740 68.469 C 229.270 68.245,228.886 68.112,228.886 68.174 M100.374 69.564 C 100.654 70.059,101.063 70.609,101.284 70.788 C 101.693 71.121,101.579 70.798,101.051 70.135 C 99.851 68.625,99.836 68.613,100.374 69.564 M232.558 70.246 C 232.895 70.530,234.051 71.436,235.129 72.260 C 236.206 73.084,237.665 74.343,238.372 75.057 C 239.079 75.771,239.657 76.265,239.657 76.154 C 239.657 75.796,235.912 72.368,234.272 71.225 C 232.410 69.927,231.693 69.518,232.558 70.246 M102.461 72.399 C 102.950 73.106,103.399 73.684,103.459 73.684 C 103.659 73.684,103.100 72.834,102.332 71.971 C 101.636 71.188,101.647 71.225,102.461 72.399 M121.120 73.623 C 120.914 73.859,120.564 74.437,120.344 74.908 C 120.124 75.379,120.083 75.559,120.254 75.306 C 121.656 73.228,121.924 72.706,121.120 73.623 M104.294 75.008 C 104.754 75.648,105.236 76.238,105.365 76.318 C 105.494 76.397,105.224 75.939,104.764 75.298 C 104.304 74.658,103.822 74.068,103.692 73.988 C 103.563 73.909,103.834 74.367,104.294 75.008 M119.268 76.561 C 119.009 76.931,118.667 77.482,118.508 77.785 C 117.993 78.770,118.390 78.366,119.170 77.111 C 119.984 75.801,120.047 75.448,119.268 76.561 M239.902 76.460 C 239.902 76.564,242.856 80.434,243.576 81.273 C 244.580 82.445,243.714 81.134,241.917 78.764 C 240.303 76.634,239.902 76.176,239.902 76.460 M116.940 80.233 C 116.884 80.334,116.529 80.967,116.151 81.640 C 115.773 82.313,115.578 82.754,115.717 82.619 C 116.071 82.276,117.333 80.049,117.174 80.049 C 117.101 80.049,116.997 80.132,116.940 80.233 M244.191 82.276 C 244.303 82.465,244.846 83.225,245.398 83.966 C 245.950 84.706,246.715 85.778,247.098 86.347 C 247.481 86.916,247.973 87.522,248.191 87.693 C 248.653 88.057,248.771 88.241,246.202 84.614 C 244.784 82.613,243.523 81.145,244.191 82.276 M114.800 83.735 C 114.507 84.147,114.308 84.524,114.358 84.574 C 114.408 84.624,114.696 84.287,114.999 83.826 C 115.681 82.785,115.527 82.715,114.800 83.735 M97.706 85.116 C 98.237 85.966,99.433 87.680,100.158 88.630 C 100.795 89.465,100.813 89.567,100.602 91.200 C 100.482 92.136,100.399 95.435,100.418 98.531 L 100.453 104.162 100.621 97.307 C 100.713 93.537,100.870 90.262,100.970 90.029 C 101.092 89.742,100.923 89.308,100.444 88.683 C 100.056 88.175,99.439 87.319,99.072 86.781 C 98.269 85.602,97.182 84.278,97.706 85.116 M112.624 88.741 C 112.346 89.644,112.126 90.673,112.137 91.029 C 112.148 91.386,112.303 91.016,112.481 90.208 C 112.660 89.400,112.930 88.421,113.081 88.032 C 113.232 87.643,113.305 87.275,113.243 87.213 C 113.181 87.151,112.903 87.839,112.624 88.741 M248.699 88.494 C 249.085 89.244,249.675 89.941,249.809 89.808 C 249.875 89.742,249.595 89.309,249.187 88.846 C 248.780 88.384,248.560 88.225,248.699 88.494 M250.184 90.514 C 250.184 90.792,251.385 92.290,251.400 92.030 C 251.404 91.956,251.132 91.521,250.796 91.065 C 250.459 90.609,250.184 90.361,250.184 90.514 M266.501 93.941 C 267.274 94.985,268.220 96.304,268.605 96.872 C 268.989 97.441,269.418 97.977,269.557 98.063 C 269.829 98.231,268.758 96.666,266.654 93.819 C 265.932 92.843,265.287 92.044,265.219 92.044 C 265.152 92.044,265.729 92.898,266.501 93.941 M252.071 93.146 C 252.460 93.684,253.320 94.930,253.982 95.913 C 254.643 96.897,255.352 97.833,255.558 97.994 C 255.891 98.255,255.891 98.229,255.566 97.752 C 253.743 95.074,252.781 93.751,252.130 93.023 L 251.363 92.166 252.071 93.146 M255.946 98.654 C 256.270 99.251,258.279 101.836,258.419 101.836 C 258.590 101.836,256.848 99.403,256.230 98.776 C 255.964 98.507,255.836 98.452,255.946 98.654 M270.159 99.021 C 270.410 99.425,271.002 100.272,271.476 100.903 C 271.950 101.535,272.536 102.334,272.778 102.678 L 273.217 103.305 280.611 103.308 C 287.116 103.312,292.320 103.508,296.328 103.901 C 297.390 104.005,297.438 103.992,296.695 103.805 C 295.084 103.397,287.765 103.061,280.490 103.060 L 273.221 103.060 272.334 101.775 C 270.326 98.866,269.103 97.317,270.159 99.021 M258.721 102.511 L 259.015 103.063 222.286 103.000 C 202.085 102.966,185.557 103.020,185.557 103.121 C 185.557 103.222,202.136 103.305,222.399 103.305 C 261.243 103.305,260.097 103.337,258.834 102.294 C 258.464 101.990,258.454 102.010,258.721 102.511 M97.326 104.648 C 96.797 104.836,95.833 105.118,95.183 105.274 C 94.533 105.430,93.949 105.641,93.886 105.743 C 93.823 105.844,94.457 105.731,95.295 105.490 C 97.757 104.783,99.047 104.333,98.654 104.319 C 98.452 104.312,97.854 104.459,97.326 104.648 M300.388 104.617 C 300.444 104.665,300.820 104.779,301.224 104.869 C 301.760 104.989,301.859 104.966,301.591 104.785 C 301.261 104.561,300.142 104.405,300.388 104.617 M302.203 105.148 C 303.001 105.445,305.297 105.937,305.114 105.772 C 304.869 105.551,302.773 105.008,302.278 105.038 C 302.102 105.048,302.069 105.098,302.203 105.148 M91.366 106.829 C 90.791 107.132,90.185 107.522,90.019 107.697 C 89.777 107.954,92.398 106.647,92.758 106.332 C 93.055 106.071,92.280 106.348,91.366 106.829 M306.792 106.384 C 306.987 106.579,310.180 107.963,310.397 107.946 C 310.635 107.928,309.260 107.246,307.927 106.721 C 307.203 106.435,306.692 106.284,306.792 106.384 M88.617 108.467 C 88.280 108.739,87.838 109.093,87.634 109.254 C 85.494 110.946,83.634 113.047,82.770 114.749 C 82.028 116.212,82.305 116.046,83.179 114.504 C 84.176 112.747,85.688 111.090,87.847 109.388 C 88.845 108.600,89.565 107.960,89.446 107.964 C 89.326 107.969,88.953 108.195,88.617 108.467 M311.498 108.433 C 311.662 108.698,313.874 109.953,313.984 109.843 C 314.027 109.800,313.455 109.416,312.712 108.990 C 311.970 108.563,311.423 108.313,311.498 108.433 M315.130 110.573 C 315.348 110.924,317.504 112.406,317.490 112.194 C 317.483 112.085,316.920 111.628,316.239 111.179 C 315.558 110.731,315.059 110.458,315.130 110.573 M319.982 114.512 C 323.212 117.585,326.357 121.907,328.214 125.826 C 329.661 128.878,330.612 131.579,331.705 135.741 C 331.952 136.683,332.162 137.234,332.170 136.965 C 332.178 136.695,332.014 135.869,331.804 135.129 C 331.595 134.388,331.266 133.219,331.074 132.531 C 329.092 125.432,324.092 117.553,318.849 113.270 C 318.176 112.719,318.686 113.279,319.982 114.512 M81.524 117.122 C 81.251 117.721,81.033 118.409,81.039 118.652 C 81.045 118.895,81.195 118.709,81.372 118.237 C 81.550 117.766,81.818 117.078,81.968 116.707 C 82.410 115.615,82.063 115.939,81.524 117.122 M80.206 121.815 C 80.119 122.443,80.049 127.623,80.049 133.327 L 80.049 143.696 77.770 143.696 C 76.076 143.696,75.370 143.794,75.016 144.077 C 74.557 144.445,74.559 144.449,75.076 144.200 C 75.370 144.057,76.658 143.941,77.939 143.941 L 80.267 143.941 80.342 132.375 C 80.383 126.013,80.404 120.777,80.389 120.740 C 80.374 120.703,80.292 121.186,80.206 121.815 M140.805 130.032 C 139.686 130.171,138.825 130.338,138.890 130.404 C 138.956 130.469,140.240 130.387,141.744 130.221 C 144.240 129.945,151.052 130.015,154.100 130.348 L 155.080 130.455 154.100 130.213 C 152.687 129.864,143.201 129.735,140.805 130.032 M264.259 130.005 C 261.892 130.327,261.669 130.497,263.892 130.285 C 266.205 130.065,273.909 130.057,276.499 130.273 C 277.958 130.395,278.208 130.378,277.479 130.207 C 276.076 129.878,266.292 129.729,264.259 130.005 M136.475 130.971 C 134.334 131.539,132.660 132.166,133.247 132.180 C 133.492 132.186,133.913 132.073,134.183 131.928 C 134.793 131.602,137.194 130.967,137.819 130.967 C 138.074 130.967,138.350 130.857,138.433 130.722 C 138.625 130.412,138.544 130.422,136.475 130.971 M155.447 130.679 C 155.649 130.803,156.255 130.980,156.793 131.073 C 167.975 132.999,179.474 143.042,184.841 155.569 C 185.804 157.817,186.949 162.520,187.284 165.606 C 187.431 166.952,187.669 168.164,187.814 168.299 C 187.990 168.462,188.031 168.460,187.938 168.293 C 187.862 168.155,187.679 166.943,187.531 165.600 C 187.192 162.514,186.045 157.809,185.085 155.569 C 184.238 153.592,182.657 150.450,181.943 149.327 C 180.515 147.080,179.813 146.028,179.656 145.900 C 179.574 145.832,178.915 145.061,178.192 144.186 C 172.961 137.858,163.854 132.149,156.916 130.846 C 156.444 130.758,155.838 130.633,155.569 130.570 C 155.190 130.480,155.162 130.505,155.447 130.679 M259.976 130.868 C 259.100 131.056,258.164 131.307,257.895 131.426 C 257.625 131.545,256.579 131.946,255.569 132.318 C 252.057 133.608,247.378 136.257,245.165 138.207 L 244.431 138.855 245.362 138.193 C 249.253 135.428,252.237 133.784,255.569 132.566 C 256.579 132.198,257.583 131.805,257.800 131.695 C 258.017 131.585,258.898 131.360,259.758 131.196 C 260.618 131.033,261.487 130.807,261.689 130.695 C 262.171 130.429,261.888 130.457,259.976 130.868 M278.742 130.717 C 278.855 130.818,279.663 131.036,280.539 131.202 C 281.414 131.367,282.244 131.597,282.384 131.712 C 282.729 131.994,284.727 132.432,284.579 132.192 C 284.514 132.087,284.046 131.924,283.540 131.830 C 283.034 131.735,282.509 131.569,282.375 131.461 C 282.059 131.208,278.470 130.472,278.742 130.717 M131.824 132.567 C 131.420 132.752,131.261 132.908,131.471 132.914 C 131.681 132.920,132.066 132.764,132.328 132.566 C 132.908 132.127,132.784 132.127,131.824 132.567 M285.084 132.653 C 285.344 132.891,286.860 133.290,286.630 133.060 C 286.548 132.978,286.115 132.805,285.668 132.677 C 285.221 132.549,284.958 132.538,285.084 132.653 M128.686 133.906 C 122.251 137.164,115.367 143.413,112.323 148.760 C 111.585 150.056,112.067 149.524,113.473 147.491 C 117.144 142.182,122.169 137.654,127.417 134.925 C 127.821 134.715,128.262 134.447,128.397 134.329 C 128.531 134.212,129.192 133.857,129.865 133.540 C 130.539 133.223,130.979 132.958,130.845 132.950 C 130.710 132.943,129.738 133.373,128.686 133.906 M286.903 133.296 C 286.903 133.359,287.278 133.605,287.737 133.841 C 292.556 136.330,294.587 137.770,298.358 141.371 C 300.665 143.574,303.388 146.826,304.112 148.243 C 304.324 148.657,304.692 149.152,304.930 149.345 C 306.333 150.474,302.163 144.821,299.797 142.386 C 296.749 139.248,291.791 135.399,289.930 134.725 C 289.679 134.634,289.198 134.379,288.862 134.159 C 288.119 133.672,286.903 133.137,286.903 133.296 M332.311 138.066 C 332.437 138.678,333.170 143.583,333.170 143.817 C 333.170 143.885,334.004 143.941,335.022 143.941 C 336.041 143.941,337.115 144.069,337.409 144.226 C 337.892 144.484,337.911 144.472,337.608 144.104 C 337.347 143.787,336.845 143.696,335.363 143.696 C 333.168 143.696,333.418 144.045,332.903 140.269 C 332.747 139.125,332.522 138.023,332.402 137.821 C 332.249 137.564,332.222 137.637,332.311 138.066 M243.272 139.664 C 242.769 140.131,242.444 140.514,242.550 140.514 C 242.657 140.514,243.117 140.129,243.574 139.657 C 244.640 138.558,244.457 138.562,243.272 139.664 M240.679 142.166 C 239.076 143.872,236.968 146.489,236.388 147.491 C 235.977 148.203,235.977 148.208,236.403 147.660 C 236.644 147.349,237.459 146.302,238.212 145.334 C 238.966 144.366,240.196 142.941,240.945 142.166 C 241.695 141.392,242.239 140.759,242.155 140.759 C 242.071 140.759,241.407 141.392,240.679 142.166 M137.489 141.648 C 136.836 141.848,136.345 142.057,136.398 142.110 C 136.452 142.164,137.152 142.002,137.954 141.750 C 138.756 141.499,139.247 141.291,139.045 141.288 C 138.843 141.285,138.143 141.447,137.489 141.648 M155.447 141.616 C 155.918 141.797,156.469 141.946,156.671 141.946 C 156.873 141.946,156.652 141.797,156.181 141.616 C 155.710 141.434,155.159 141.286,154.957 141.286 C 154.755 141.286,154.976 141.434,155.447 141.616 M260.628 141.661 C 259.977 141.860,259.491 142.070,259.549 142.127 C 259.606 142.185,260.304 142.021,261.099 141.764 C 261.895 141.508,262.381 141.298,262.179 141.298 C 261.977 141.299,261.279 141.462,260.628 141.661 M278.213 141.493 C 278.482 141.609,278.868 141.704,279.070 141.704 C 279.301 141.704,279.256 141.626,278.947 141.493 C 278.678 141.378,278.293 141.283,278.091 141.283 C 277.859 141.283,277.904 141.361,278.213 141.493 M133.125 143.460 C 132.629 143.722,132.158 144.042,132.079 144.170 C 131.965 144.354,133.951 143.379,134.374 143.043 C 134.698 142.786,133.893 143.054,133.125 143.460 M159.608 143.072 C 159.608 143.136,160.174 143.458,160.864 143.789 C 161.555 144.120,161.968 144.239,161.782 144.055 C 161.422 143.697,159.608 142.877,159.608 143.072 M256.393 143.447 C 255.836 143.695,255.318 143.999,255.241 144.123 C 255.164 144.247,255.647 144.088,256.314 143.768 C 258.028 142.948,258.091 142.692,256.393 143.447 M283.231 143.327 C 283.231 143.494,284.730 144.238,284.842 144.126 C 284.895 144.072,284.555 143.846,284.085 143.622 C 283.616 143.398,283.231 143.265,283.231 143.327 M129.865 145.445 C 127.820 146.857,126.071 148.342,126.071 148.666 C 126.071 148.816,126.539 148.485,127.111 147.929 C 127.684 147.374,128.970 146.359,129.970 145.675 C 130.970 144.991,131.686 144.431,131.561 144.431 C 131.436 144.431,130.673 144.888,129.865 145.445 M339.150 145.526 L 340.024 146.672 340.024 156.094 C 340.024 165.869,340.012 165.994,338.959 167.149 C 338.600 167.544,338.560 167.670,338.829 167.567 C 340.169 167.052,340.269 166.253,340.269 156.123 L 340.269 146.707 339.551 145.716 C 339.156 145.171,338.707 144.647,338.554 144.552 C 338.401 144.457,338.669 144.896,339.150 145.526 M286.059 144.878 C 286.187 144.989,287.007 145.583,287.882 146.197 C 290.824 148.261,294.178 151.949,296.238 155.386 C 296.783 156.294,297.171 156.855,297.101 156.632 C 296.211 153.815,291.050 148.003,286.992 145.249 C 286.180 144.698,285.576 144.458,286.059 144.878 M163.366 145.106 C 163.462 145.261,163.887 145.634,164.311 145.936 C 164.735 146.238,165.004 146.359,164.908 146.204 C 164.813 146.049,164.387 145.675,163.963 145.373 C 163.539 145.071,163.270 144.951,163.366 145.106 M252.999 145.454 C 251.348 146.376,246.602 150.957,245.933 152.275 C 245.833 152.471,246.115 152.198,246.560 151.668 C 248.071 149.866,251.036 147.089,252.476 146.126 C 253.806 145.236,254.127 144.823,252.999 145.454 M166.755 147.808 C 167.527 148.521,168.838 149.843,169.670 150.746 C 170.502 151.648,170.955 152.056,170.676 151.652 C 170.160 150.903,166.740 147.516,165.847 146.869 C 165.575 146.672,165.984 147.095,166.755 147.808 M235.354 149.021 C 234.735 149.890,233.390 152.463,233.722 152.142 C 233.861 152.007,234.268 151.346,234.625 150.673 C 234.982 150.000,235.447 149.201,235.659 148.898 C 235.871 148.595,235.997 148.348,235.939 148.348 C 235.880 148.348,235.617 148.651,235.354 149.021 M124.068 150.664 C 123.218 151.668,122.284 152.802,121.994 153.184 C 121.358 154.020,119.611 157.160,119.783 157.160 C 119.850 157.160,120.252 156.545,120.677 155.792 C 121.621 154.118,123.818 151.137,124.718 150.306 C 125.359 149.715,125.963 148.837,125.729 148.837 C 125.667 148.837,124.919 149.659,124.068 150.664 M111.547 150.000 C 110.866 151.137,109.912 153.079,109.995 153.161 C 110.053 153.219,110.495 152.490,110.977 151.541 C 111.681 150.155,112.047 149.164,111.547 150.000 M305.263 149.908 C 305.263 150.018,305.464 150.400,305.709 150.758 C 305.955 151.115,306.345 151.821,306.578 152.326 C 307.005 153.254,307.340 153.604,307.047 152.815 C 306.684 151.838,305.263 149.522,305.263 149.908 M273.439 151.975 C 273.641 152.098,274.260 152.268,274.815 152.352 C 275.369 152.436,276.140 152.670,276.528 152.873 C 276.916 153.075,277.399 153.239,277.601 153.237 C 278.188 153.231,275.972 152.301,274.966 152.131 C 274.463 152.046,273.831 151.926,273.562 151.864 C 273.183 151.777,273.155 151.802,273.439 151.975 M140.400 152.644 C 139.463 152.978,138.601 153.345,138.486 153.460 C 138.309 153.637,139.735 153.195,141.004 152.679 C 141.206 152.597,141.756 152.425,142.228 152.297 C 142.699 152.169,142.864 152.058,142.595 152.051 C 142.326 152.044,141.338 152.311,140.400 152.644 M151.040 152.176 C 151.242 152.240,152.105 152.516,152.957 152.790 C 153.809 153.063,154.555 153.238,154.614 153.179 C 154.761 153.031,151.624 152.015,151.096 152.039 C 150.767 152.054,150.754 152.084,151.040 152.176 M264.627 152.259 C 263.557 152.604,262.289 153.224,262.631 153.234 C 262.813 153.239,263.309 153.081,263.733 152.882 C 264.157 152.683,264.945 152.418,265.483 152.294 C 266.116 152.149,266.246 152.068,265.851 152.065 C 265.514 152.063,264.963 152.151,264.627 152.259 M171.835 153.550 C 172.265 154.189,172.671 154.712,172.736 154.712 C 172.941 154.712,171.993 153.231,171.512 152.799 C 171.260 152.572,171.405 152.910,171.835 153.550 M232.855 153.663 C 232.566 154.293,232.366 154.847,232.412 154.892 C 232.458 154.938,232.736 154.464,233.030 153.838 C 233.324 153.212,233.524 152.659,233.474 152.609 C 233.424 152.559,233.145 153.033,232.855 153.663 M244.866 153.794 C 243.913 155.210,243.671 155.695,244.287 154.957 C 244.868 154.261,245.810 152.754,245.664 152.754 C 245.611 152.754,245.252 153.222,244.866 153.794 M259.789 154.596 C 259.084 155.071,258.507 155.517,258.507 155.587 C 258.507 155.658,258.975 155.397,259.547 155.008 C 260.119 154.619,260.808 154.176,261.077 154.024 C 261.346 153.872,261.455 153.745,261.319 153.741 C 261.182 153.737,260.494 154.122,259.789 154.596 M136.353 154.624 C 135.086 155.517,132.732 157.683,132.265 158.384 C 132.041 158.721,132.727 158.143,133.789 157.099 C 134.851 156.056,135.786 155.202,135.866 155.202 C 135.947 155.202,136.386 154.927,136.842 154.590 C 137.914 153.799,137.479 153.829,136.353 154.624 M156.517 154.172 C 156.609 154.320,157.184 154.779,157.795 155.191 C 158.406 155.604,158.838 155.832,158.755 155.697 C 158.672 155.563,158.097 155.104,157.477 154.678 C 156.857 154.251,156.425 154.024,156.517 154.172 M279.559 154.060 C 279.559 154.126,280.248 154.672,281.089 155.273 C 284.174 157.478,287.882 162.415,287.882 164.318 C 287.882 164.501,287.987 164.756,288.116 164.884 C 289.030 165.799,289.052 173.580,288.147 176.125 C 286.610 180.447,281.522 186.781,279.587 186.781 C 279.470 186.781,279.223 186.964,279.039 187.188 C 277.944 188.515,282.659 185.137,284.029 183.612 C 286.379 180.999,288.289 177.316,288.862 174.293 C 289.347 171.739,289.015 165.546,288.358 164.884 C 288.231 164.756,288.127 164.503,288.127 164.323 C 288.127 163.045,285.236 158.579,283.229 156.758 C 282.100 155.733,279.559 153.865,279.559 154.060 M109.240 154.707 C 108.873 155.296,107.900 158.166,108.026 158.291 C 108.078 158.343,108.329 157.752,108.583 156.978 C 108.838 156.203,109.201 155.318,109.391 155.011 C 109.581 154.704,109.689 154.406,109.632 154.349 C 109.575 154.292,109.399 154.453,109.240 154.707 M307.842 155.202 C 308.069 155.808,308.407 156.651,308.595 157.075 C 308.782 157.499,308.935 158.071,308.935 158.346 C 308.935 158.620,309.050 158.916,309.190 159.002 C 309.655 159.290,308.231 154.965,307.656 154.345 C 307.531 154.211,307.615 154.596,307.842 155.202 M256.541 157.344 L 254.957 158.996 256.610 157.412 C 257.518 156.541,258.262 155.797,258.262 155.760 C 258.262 155.580,258.013 155.809,256.541 157.344 M160.720 157.711 C 161.651 158.755,162.453 159.608,162.502 159.608 C 162.666 159.608,160.644 157.293,159.831 156.548 C 159.389 156.144,159.789 156.668,160.720 157.711 M173.912 157.036 C 174.352 158.088,174.768 158.818,174.778 158.555 C 174.789 158.271,173.817 156.181,173.675 156.181 C 173.609 156.181,173.716 156.566,173.912 157.036 M243.077 156.684 C 242.929 156.961,242.844 157.296,242.889 157.429 C 242.933 157.562,243.096 157.336,243.250 156.926 C 243.572 156.074,243.476 155.940,243.077 156.684 M231.094 158.176 C 230.944 158.762,230.721 159.517,230.598 159.853 C 230.301 160.666,229.806 163.547,229.941 163.682 C 229.999 163.741,230.216 162.931,230.422 161.882 C 230.628 160.833,230.968 159.375,231.178 158.641 C 231.389 157.906,231.517 157.262,231.464 157.208 C 231.410 157.155,231.244 157.590,231.094 158.176 M118.837 158.988 C 118.642 159.455,118.482 159.939,118.482 160.062 C 118.482 160.186,118.318 160.602,118.117 160.988 C 117.915 161.374,117.755 161.854,117.759 162.056 C 117.768 162.475,118.302 161.315,118.970 159.425 C 119.479 157.985,119.385 157.677,118.837 158.988 M131.133 159.914 C 130.339 160.977,129.916 161.822,130.090 161.996 C 130.169 162.074,130.233 162.020,130.233 161.877 C 130.233 161.733,130.611 161.054,131.073 160.367 C 132.011 158.973,132.049 158.687,131.133 159.914 M254.659 159.425 C 254.240 159.968,252.837 162.546,252.960 162.546 C 253.025 162.546,253.523 161.775,254.067 160.832 C 254.991 159.229,255.209 158.711,254.659 159.425 M298.192 159.364 C 298.185 159.431,298.393 160.092,298.654 160.832 C 298.914 161.573,299.128 161.958,299.129 161.689 C 299.130 161.270,298.225 159.023,298.192 159.364 M163.127 160.999 C 163.475 161.696,163.865 162.331,163.993 162.410 C 164.264 162.577,163.115 160.338,162.744 159.976 C 162.606 159.841,162.778 160.301,163.127 160.999 M106.752 162.723 C 106.591 163.770,106.396 165.012,106.318 165.483 C 106.241 165.955,106.241 166.282,106.319 166.211 C 106.506 166.040,107.292 161.066,107.154 160.928 C 107.095 160.868,106.914 161.676,106.752 162.723 M175.909 161.934 C 176.001 162.338,176.224 163.274,176.405 164.015 L 176.734 165.361 176.610 164.088 C 176.541 163.387,176.318 162.451,176.113 162.007 L 175.741 161.200 175.909 161.934 M310.029 162.056 C 310.094 162.528,310.267 163.794,310.414 164.871 C 310.845 168.028,310.920 168.476,311.008 168.385 C 311.180 168.207,310.617 163.691,310.272 162.470 C 310.034 161.632,309.952 161.491,310.029 162.056 M145.080 162.240 C 145.017 162.341,145.794 162.387,146.808 162.342 C 147.913 162.293,148.756 162.366,148.915 162.526 C 149.061 162.671,149.351 162.790,149.559 162.789 C 149.768 162.788,149.623 162.623,149.238 162.422 C 148.509 162.042,145.291 161.901,145.080 162.240 M267.809 162.449 C 267.472 162.656,267.417 162.735,267.687 162.626 C 267.956 162.516,269.075 162.426,270.172 162.425 C 271.270 162.424,272.118 162.341,272.055 162.240 C 271.839 161.890,268.449 162.057,267.809 162.449 M240.636 163.525 C 240.471 164.213,240.385 164.824,240.445 164.884 C 240.504 164.943,240.684 164.425,240.844 163.732 C 241.004 163.039,241.090 162.428,241.035 162.374 C 240.981 162.319,240.801 162.837,240.636 163.525 M129.287 163.342 C 128.936 164.001,128.252 166.522,128.388 166.658 C 128.486 166.756,129.004 165.064,129.009 164.627 C 129.010 164.492,129.178 164.063,129.382 163.672 C 129.585 163.282,129.713 162.924,129.666 162.877 C 129.619 162.830,129.449 163.039,129.287 163.342 M151.054 163.491 C 151.652 163.876,152.574 164.619,153.101 165.143 C 153.629 165.667,153.904 165.866,153.713 165.586 C 153.111 164.703,150.710 162.791,150.204 162.791 C 150.073 162.791,150.455 163.106,151.054 163.491 M251.978 164.907 C 251.031 167.909,250.980 173.166,251.872 175.962 C 252.186 176.945,252.487 177.705,252.541 177.651 C 252.594 177.597,252.392 176.793,252.091 175.863 C 251.235 173.223,251.291 167.865,252.205 165.009 C 252.568 163.872,252.820 162.897,252.764 162.841 C 252.708 162.786,252.355 163.715,251.978 164.907 M265.068 163.843 C 264.359 164.421,263.477 165.330,263.109 165.862 C 262.006 167.457,262.338 167.367,263.530 165.748 C 264.139 164.921,264.910 164.120,265.244 163.968 C 265.578 163.816,265.851 163.608,265.851 163.506 C 265.851 163.404,266.154 163.210,266.524 163.075 C 266.930 162.927,267.031 162.822,266.778 162.810 C 266.547 162.799,265.778 163.264,265.068 163.843 M274.174 163.403 C 274.341 163.605,274.621 163.770,274.795 163.770 C 274.969 163.770,275.577 164.293,276.145 164.933 C 276.714 165.572,277.056 165.859,276.905 165.570 C 276.588 164.960,274.464 163.035,274.109 163.035 C 273.977 163.035,274.006 163.201,274.174 163.403 M141.046 164.609 C 140.286 165.340,139.717 165.974,139.783 166.017 C 139.848 166.060,140.533 165.462,141.305 164.688 C 143.084 162.902,142.885 162.842,141.046 164.609 M117.177 164.363 C 117.099 164.566,116.972 165.589,116.894 166.638 C 116.816 167.686,116.708 169.094,116.654 169.767 C 116.584 170.644,116.614 170.818,116.760 170.379 C 116.873 170.043,116.982 169.051,117.004 168.176 C 117.025 167.301,117.134 166.034,117.246 165.361 C 117.455 164.106,117.428 163.709,117.177 164.363 M229.603 164.321 C 229.594 164.489,229.508 165.478,229.414 166.518 C 229.319 167.558,229.313 168.329,229.400 168.231 C 229.585 168.023,229.904 164.015,229.735 164.015 C 229.672 164.015,229.613 164.152,229.603 164.321 M165.026 164.871 C 164.988 165.291,165.656 169.165,165.789 169.298 C 165.979 169.488,165.695 167.269,165.351 165.861 C 165.184 165.182,165.038 164.737,165.026 164.871 M299.934 165.973 C 299.934 166.444,299.985 166.637,300.046 166.401 C 300.108 166.166,300.108 165.780,300.046 165.545 C 299.985 165.309,299.934 165.502,299.934 165.973 M154.610 167.688 C 155.136 168.984,155.234 169.560,155.158 170.913 C 155.107 171.819,155.149 172.427,155.252 172.265 C 155.827 171.361,155.099 167.267,154.201 166.348 C 154.073 166.217,154.257 166.821,154.610 167.688 M128.096 167.931 C 128.096 168.537,128.144 168.785,128.202 168.482 C 128.260 168.179,128.260 167.684,128.202 167.381 C 128.144 167.078,128.096 167.326,128.096 167.931 M139.028 167.609 C 138.891 167.971,138.811 168.487,138.851 168.756 C 138.891 169.032,139.036 168.747,139.184 168.098 C 139.475 166.822,139.408 166.611,139.028 167.609 M300.240 170.502 C 300.242 173.377,300.262 173.528,300.452 172.060 C 300.570 171.150,300.569 169.751,300.450 168.878 C 300.261 167.494,300.238 167.676,300.240 170.502 M278.213 170.500 C 278.213 171.768,278.288 172.618,278.379 172.388 C 278.471 172.159,278.546 171.310,278.546 170.502 C 278.546 169.694,278.471 168.844,278.379 168.614 C 278.288 168.383,278.213 169.232,278.213 170.500 M138.676 171.063 C 138.841 174.074,140.460 176.692,142.942 177.958 C 144.402 178.703,144.490 178.558,143.073 177.744 C 140.566 176.306,139.203 174.173,138.807 171.067 L 138.579 169.278 138.676 171.063 M261.568 170.130 C 261.484 170.396,261.509 170.784,261.625 170.991 C 261.774 171.258,261.836 171.116,261.836 170.506 C 261.836 169.520,261.785 169.448,261.568 170.130 M116.894 173.660 C 116.948 175.155,117.109 176.448,117.261 176.598 C 117.459 176.794,117.491 176.758,117.380 176.466 C 117.296 176.246,117.131 174.925,117.013 173.529 L 116.798 170.991 116.894 173.660 M165.635 172.154 C 165.113 174.942,164.863 176.702,165.001 176.617 C 165.092 176.561,165.301 175.658,165.465 174.610 C 165.629 173.562,165.812 172.457,165.873 172.154 C 165.933 171.851,165.927 171.603,165.860 171.603 C 165.793 171.603,165.691 171.851,165.635 172.154 M128.096 173.072 C 128.096 173.678,128.144 173.926,128.202 173.623 C 128.260 173.320,128.260 172.824,128.202 172.521 C 128.144 172.218,128.096 172.466,128.096 173.072 M154.492 173.821 C 154.293 174.487,153.704 175.299,152.718 176.271 C 151.906 177.070,151.321 177.723,151.416 177.723 C 152.218 177.723,155.363 173.396,154.898 172.932 C 154.839 172.873,154.656 173.273,154.492 173.821 M277.651 173.884 C 277.285 174.894,275.590 176.879,274.551 177.513 C 274.141 177.762,273.936 177.967,274.094 177.967 C 275.044 177.970,278.314 174.110,278.045 173.303 C 277.996 173.157,277.819 173.418,277.651 173.884 M262.428 173.840 C 262.408 174.520,263.889 176.363,265.239 177.337 C 266.089 177.950,266.061 177.904,265.031 176.987 C 264.378 176.405,263.526 175.425,263.138 174.807 C 262.750 174.190,262.431 173.754,262.428 173.840 M128.370 174.663 C 128.860 176.671,129.124 177.390,129.977 179.049 C 133.578 186.050,140.801 190.153,148.470 189.554 C 150.731 189.377,154.972 188.183,154.613 187.824 C 154.559 187.770,154.312 187.837,154.063 187.973 C 149.672 190.372,140.551 189.358,136.179 185.984 C 132.861 183.424,129.499 178.712,128.886 175.765 C 128.788 175.294,128.605 174.743,128.479 174.541 C 128.302 174.255,128.277 174.283,128.370 174.663 M240.415 176.499 C 240.389 176.970,240.887 178.778,241.010 178.656 C 241.061 178.605,240.952 178.016,240.769 177.348 C 240.585 176.679,240.426 176.297,240.415 176.499 M176.193 177.846 C 176.099 178.250,175.958 178.856,175.880 179.192 C 175.785 179.601,175.868 179.523,176.129 178.956 C 176.344 178.490,176.485 177.884,176.442 177.610 C 176.382 177.222,176.327 177.275,176.193 177.846 M253.030 178.863 C 253.813 180.736,256.216 183.852,257.817 185.069 C 258.719 185.755,258.671 185.679,257.493 184.552 C 255.407 182.558,254.399 181.176,253.273 178.764 C 252.764 177.675,252.567 177.755,253.030 178.863 M163.433 179.669 C 163.070 180.337,162.281 181.487,161.680 182.225 C 161.079 182.962,160.588 183.637,160.588 183.725 C 160.588 183.883,160.983 183.445,162.140 182.007 C 162.889 181.076,164.312 178.674,164.188 178.549 C 164.136 178.498,163.796 179.002,163.433 179.669 M117.882 179.315 C 117.978 179.719,118.150 180.152,118.265 180.277 C 118.380 180.403,118.369 180.140,118.241 179.693 C 117.942 178.652,117.653 178.347,117.882 179.315 M146.450 178.871 C 146.686 178.933,147.072 178.933,147.307 178.871 C 147.543 178.810,147.350 178.759,146.879 178.759 C 146.408 178.759,146.215 178.810,146.450 178.871 M298.461 180.845 C 298.213 181.669,298.222 181.714,298.542 181.287 C 298.853 180.873,299.044 179.927,298.817 179.927 C 298.772 179.927,298.612 180.340,298.461 180.845 M241.388 180.294 C 241.388 180.428,241.546 180.814,241.738 181.151 C 241.930 181.487,242.088 181.652,242.088 181.518 C 242.088 181.383,241.930 180.998,241.738 180.661 C 241.546 180.324,241.388 180.159,241.388 180.294 M118.502 180.852 C 118.478 181.228,119.139 182.864,119.314 182.864 C 119.381 182.864,119.291 182.506,119.114 182.069 C 118.936 181.631,118.730 181.108,118.656 180.906 C 118.568 180.668,118.514 180.649,118.502 180.852 M297.735 182.681 C 297.472 183.400,297.479 183.431,297.804 183.001 C 298.116 182.590,298.299 181.885,298.095 181.885 C 298.057 181.885,297.896 182.243,297.735 182.681 M242.105 182.186 C 242.105 182.480,243.586 185.291,243.816 185.433 C 243.949 185.515,243.671 184.840,243.198 183.931 C 242.350 182.305,242.105 181.914,242.105 182.186 M174.243 183.397 C 173.938 184.111,173.915 184.303,174.158 184.101 C 174.472 183.841,174.898 182.650,174.736 182.488 C 174.695 182.447,174.474 182.856,174.243 183.397 M159.044 184.946 C 158.397 185.541,157.217 186.386,156.422 186.823 C 155.628 187.260,155.019 187.659,155.070 187.710 C 155.344 187.984,159.548 185.095,160.073 184.272 C 160.459 183.667,160.368 183.727,159.044 184.946 M296.272 185.467 C 295.837 186.203,295.578 186.744,295.698 186.670 C 295.973 186.500,297.256 184.322,297.145 184.213 C 297.100 184.168,296.707 184.732,296.272 185.467 M120.213 184.700 C 120.213 184.835,120.371 185.220,120.563 185.557 C 120.755 185.894,120.913 186.059,120.913 185.924 C 120.913 185.789,120.755 185.404,120.563 185.067 C 120.371 184.731,120.213 184.565,120.213 184.700 M173.195 185.312 C 172.986 185.716,172.870 186.047,172.937 186.047 C 173.005 186.047,173.231 185.716,173.439 185.312 C 173.648 184.908,173.764 184.578,173.697 184.578 C 173.629 184.578,173.403 184.908,173.195 185.312 M172.057 187.209 C 171.745 187.714,171.268 188.393,170.996 188.718 C 168.473 191.733,166.468 193.669,164.387 195.100 C 163.759 195.532,163.304 195.944,163.375 196.015 C 163.940 196.579,171.029 189.576,172.413 187.087 C 173.023 185.990,172.751 186.083,172.057 187.209 M244.310 186.475 C 244.310 186.576,244.588 186.989,244.926 187.393 L 245.542 188.127 245.023 187.209 C 244.519 186.317,244.307 186.099,244.310 186.475 M260.493 186.992 C 260.814 187.243,261.353 187.517,261.689 187.602 C 262.135 187.713,262.091 187.658,261.524 187.397 C 261.097 187.201,260.677 186.926,260.592 186.788 C 260.506 186.649,260.318 186.536,260.173 186.536 C 260.028 186.536,260.172 186.741,260.493 186.992 M122.809 188.800 C 124.423 190.907,125.695 192.263,127.156 193.437 C 128.011 194.124,127.880 193.957,126.733 192.901 C 125.818 192.059,124.349 190.447,123.469 189.320 C 122.589 188.193,121.816 187.271,121.752 187.271 C 121.688 187.271,122.164 187.959,122.809 188.800 M293.858 189.042 C 292.233 191.106,291.806 191.764,292.865 190.575 C 293.833 189.488,295.312 187.515,295.159 187.515 C 295.104 187.515,294.519 188.202,293.858 189.042 M262.805 188.120 C 263.066 188.317,263.446 188.482,263.647 188.485 C 263.849 188.489,263.699 188.327,263.314 188.126 C 262.421 187.660,262.194 187.657,262.805 188.120 M276.744 188.120 C 276.340 188.301,275.531 188.577,274.946 188.733 C 274.360 188.890,273.925 189.061,273.978 189.114 C 274.133 189.270,276.447 188.603,277.240 188.174 C 278.119 187.698,277.771 187.660,276.744 188.120 M245.768 188.716 C 246.570 190.231,253.104 196.182,253.515 195.771 C 253.578 195.708,253.075 195.301,252.396 194.865 C 251.718 194.430,249.879 192.736,248.310 191.101 C 246.740 189.465,245.596 188.392,245.768 188.716 M265.375 188.967 C 267.025 189.487,270.058 189.721,272.215 189.495 C 273.482 189.363,273.132 189.326,270.502 189.313 C 268.187 189.301,266.799 189.176,265.867 188.895 C 265.136 188.675,264.420 188.505,264.276 188.517 C 264.132 188.529,264.627 188.732,265.375 188.967 M289.945 193.171 C 289.551 193.586,288.595 194.372,287.821 194.917 C 287.047 195.463,286.414 195.955,286.414 196.011 C 286.414 196.158,286.867 195.866,288.250 194.832 C 290.241 193.341,290.951 192.709,290.802 192.558 C 290.725 192.480,290.340 192.756,289.945 193.171 M129.131 194.974 C 129.870 195.622,130.722 196.177,130.722 196.011 C 130.722 195.962,130.199 195.563,129.559 195.126 C 128.679 194.524,128.575 194.487,129.131 194.974 M131.089 196.291 C 131.224 196.431,131.995 196.894,132.803 197.320 C 133.611 197.746,134.162 197.982,134.027 197.846 C 133.892 197.710,133.121 197.247,132.313 196.818 C 131.506 196.388,130.955 196.152,131.089 196.291 M161.268 197.002 C 160.363 197.492,159.661 197.931,159.708 197.978 C 159.832 198.102,162.750 196.592,162.921 196.316 C 163.116 196.000,163.129 195.994,161.268 197.002 M254.229 196.339 C 254.403 196.619,257.779 198.361,257.905 198.236 C 257.950 198.191,257.107 197.690,256.032 197.123 C 254.957 196.556,254.146 196.203,254.229 196.339 M284.578 196.944 C 283.770 197.410,283.206 197.792,283.324 197.794 C 283.582 197.797,286.169 196.337,286.169 196.188 C 286.169 196.029,286.151 196.038,284.578 196.944 M157.283 198.775 C 156.206 199.153,155.008 199.534,154.622 199.621 C 154.236 199.708,153.964 199.823,154.017 199.876 C 154.169 200.028,156.224 199.530,157.075 199.135 C 157.499 198.937,158.001 198.776,158.191 198.776 C 158.380 198.776,158.749 198.614,159.011 198.417 C 159.620 197.956,159.605 197.959,157.283 198.775 M258.388 198.536 C 258.456 198.647,258.869 198.815,259.305 198.908 C 259.741 199.001,260.208 199.159,260.343 199.259 C 260.603 199.452,262.751 200.015,263.083 199.978 C 263.268 199.957,262.115 199.554,259.425 198.703 C 258.786 198.500,258.319 198.425,258.388 198.536 M278.947 199.288 C 278.274 199.533,277.944 199.732,278.213 199.731 C 278.482 199.729,279.198 199.520,279.804 199.266 C 281.201 198.679,280.571 198.696,278.947 199.288 M137.699 199.397 C 138.103 199.582,138.654 199.731,138.923 199.728 C 139.192 199.725,138.917 199.566,138.311 199.375 C 136.952 198.947,136.733 198.955,137.699 199.397 M275.275 200.245 L 274.296 200.420 275.153 200.451 C 275.624 200.468,276.175 200.375,276.377 200.245 C 276.778 199.986,276.721 199.986,275.275 200.245 M141.554 200.414 C 141.790 200.475,142.176 200.475,142.411 200.414 C 142.647 200.352,142.454 200.302,141.983 200.302 C 141.512 200.302,141.319 200.352,141.554 200.414 M151.591 200.414 C 151.827 200.475,152.212 200.475,152.448 200.414 C 152.684 200.352,152.491 200.302,152.020 200.302 C 151.548 200.302,151.356 200.352,151.591 200.414 M264.568 200.418 C 264.873 200.476,265.313 200.474,265.548 200.413 C 265.782 200.352,265.532 200.304,264.994 200.307 C 264.455 200.309,264.264 200.359,264.568 200.418 M144.994 200.672 C 146.178 200.717,148.051 200.717,149.155 200.672 C 150.259 200.626,149.290 200.589,147.001 200.590 C 144.712 200.590,143.809 200.627,144.994 200.672 M268.127 200.672 C 269.312 200.717,271.184 200.717,272.289 200.672 C 273.393 200.626,272.424 200.589,270.135 200.590 C 267.846 200.590,266.942 200.627,268.127 200.672 " stroke="none" fill="#d88391" fill-rule="evenodd"></path><path id="path3" d="M45.358 43.696 C 45.359 44.370,45.407 44.616,45.463 44.244 C 45.520 43.872,45.518 43.321,45.460 43.020 C 45.402 42.719,45.356 43.023,45.358 43.696 M157.202 53.305 C 167.525 53.340,184.490 53.340,194.901 53.305 C 205.313 53.269,196.867 53.241,176.132 53.240 C 155.398 53.240,146.879 53.269,157.202 53.305 M244.798 65.184 C 244.798 65.221,245.652 66.074,246.695 67.081 L 248.592 68.911 246.763 67.013 C 245.063 65.251,244.798 65.005,244.798 65.184 M223.623 66.340 C 223.892 66.456,224.278 66.551,224.480 66.551 C 224.711 66.551,224.666 66.473,224.357 66.340 C 224.088 66.225,223.703 66.130,223.501 66.130 C 223.269 66.130,223.314 66.208,223.623 66.340 M123.489 71.053 L 122.521 72.093 123.562 71.125 C 124.529 70.225,124.715 70.012,124.529 70.012 C 124.489 70.012,124.021 70.480,123.489 71.053 M173.072 139.367 C 173.072 139.409,173.430 139.767,173.868 140.162 L 174.663 140.881 173.944 140.086 C 173.274 139.344,173.072 139.178,173.072 139.367 M145.481 140.206 C 146.396 140.253,147.828 140.253,148.664 140.205 C 149.500 140.158,148.752 140.119,147.001 140.120 C 145.251 140.120,144.567 140.159,145.481 140.206 M268.615 140.206 C 269.529 140.253,270.961 140.253,271.797 140.205 C 272.633 140.158,271.885 140.119,270.135 140.120 C 268.384 140.120,267.700 140.159,268.615 140.206 M176.989 143.329 C 177.446 143.800,177.875 144.186,177.942 144.186 C 178.009 144.186,177.691 143.800,177.234 143.329 C 176.777 142.858,176.348 142.472,176.281 142.472 C 176.214 142.472,176.532 142.858,176.989 143.329 M72.327 156.181 C 72.327 161.499,72.359 163.675,72.399 161.016 C 72.438 158.357,72.438 154.006,72.399 151.346 C 72.359 148.687,72.327 150.863,72.327 156.181 M146.573 151.703 C 146.876 151.761,147.371 151.761,147.674 151.703 C 147.977 151.644,147.729 151.597,147.124 151.597 C 146.518 151.597,146.270 151.644,146.573 151.703 M269.709 151.703 C 270.014 151.762,270.454 151.759,270.688 151.698 C 270.922 151.637,270.673 151.589,270.135 151.592 C 269.596 151.594,269.405 151.645,269.709 151.703 M144.125 151.948 C 144.428 152.006,144.924 152.006,145.226 151.948 C 145.529 151.889,145.282 151.841,144.676 151.841 C 144.070 151.841,143.822 151.889,144.125 151.948 M148.779 151.948 C 149.083 152.006,149.524 152.004,149.758 151.943 C 149.992 151.882,149.743 151.834,149.204 151.837 C 148.666 151.839,148.474 151.889,148.779 151.948 M267.506 151.948 C 267.810 152.006,268.251 152.004,268.485 151.943 C 268.719 151.882,268.470 151.834,267.931 151.837 C 267.393 151.839,267.201 151.889,267.506 151.948 M271.912 151.948 C 272.217 152.006,272.657 152.004,272.891 151.943 C 273.126 151.882,272.876 151.834,272.338 151.837 C 271.799 151.839,271.608 151.889,271.912 151.948 M106.299 166.952 C 106.299 167.424,106.350 167.616,106.411 167.381 C 106.473 167.145,106.473 166.759,106.411 166.524 C 106.350 166.288,106.299 166.481,106.299 166.952 M82.943 168.605 C 87.295 168.642,94.345 168.642,98.610 168.605 C 102.875 168.567,99.315 168.536,90.698 168.536 C 82.081 168.536,78.591 168.567,82.943 168.605 M198.225 168.605 C 203.914 168.641,213.222 168.641,218.911 168.605 C 224.599 168.568,219.945 168.538,208.568 168.538 C 197.191 168.538,192.537 168.568,198.225 168.605 M317.547 168.604 C 321.139 168.643,327.088 168.643,330.766 168.605 C 334.444 168.566,331.506 168.535,324.235 168.535 C 316.965 168.535,313.955 168.566,317.547 168.604 M165.798 170.502 C 165.800 171.175,165.848 171.421,165.904 171.049 C 165.960 170.677,165.959 170.126,165.901 169.825 C 165.842 169.524,165.796 169.829,165.798 170.502 M177.304 170.502 C 177.306 171.175,177.353 171.421,177.409 171.049 C 177.466 170.677,177.464 170.126,177.406 169.825 C 177.348 169.524,177.302 169.829,177.304 170.502 M278.650 170.502 C 278.652 171.175,278.700 171.421,278.756 171.049 C 278.812 170.677,278.811 170.126,278.752 169.825 C 278.694 169.524,278.648 169.829,278.650 170.502 M147.919 178.871 C 148.155 178.933,148.540 178.933,148.776 178.871 C 149.012 178.810,148.819 178.759,148.348 178.759 C 147.876 178.759,147.684 178.810,147.919 178.871 M268.360 178.871 C 268.595 178.933,268.981 178.933,269.217 178.871 C 269.452 178.810,269.259 178.759,268.788 178.759 C 268.317 178.759,268.124 178.810,268.360 178.871 M271.178 178.876 C 271.482 178.934,271.923 178.932,272.157 178.871 C 272.391 178.809,272.142 178.762,271.603 178.764 C 271.065 178.767,270.873 178.817,271.178 178.876 M256.793 183.966 C 257.250 184.437,257.679 184.823,257.746 184.823 C 257.813 184.823,257.495 184.437,257.038 183.966 C 256.581 183.494,256.152 183.109,256.085 183.109 C 256.018 183.109,256.336 183.494,256.793 183.966 " stroke="none" fill="#de9eab" fill-rule="evenodd"></path><path id="path4" d="M68.605 32.983 C 69.244 33.033,70.291 33.033,70.930 32.983 C 71.570 32.932,71.047 32.891,69.767 32.891 C 68.488 32.891,67.965 32.932,68.605 32.983 M74.174 33.837 C 74.174 33.890,74.807 34.472,75.581 35.131 C 76.356 35.789,76.769 36.073,76.499 35.762 C 75.988 35.172,74.174 33.670,74.174 33.837 M63.023 34.248 C 62.895 34.370,62.570 34.522,62.301 34.587 C 61.837 34.698,61.838 34.706,62.332 34.733 C 62.619 34.749,62.990 34.596,63.158 34.394 C 63.490 33.994,63.397 33.893,63.023 34.248 M55.080 36.475 C 54.588 36.632,54.564 36.672,54.957 36.678 C 55.226 36.682,55.667 36.591,55.936 36.475 C 56.560 36.207,55.917 36.207,55.080 36.475 M47.108 39.474 L 46.389 40.269 47.185 39.550 C 47.926 38.880,48.093 38.678,47.904 38.678 C 47.862 38.678,47.504 39.036,47.108 39.474 M79.315 39.902 C 79.602 40.306,79.893 40.636,79.960 40.636 C 80.027 40.636,79.847 40.306,79.559 39.902 C 79.272 39.498,78.981 39.168,78.914 39.168 C 78.847 39.168,79.027 39.498,79.315 39.902 M45.532 45.480 C 45.532 45.909,46.595 47.547,47.152 47.977 C 47.512 48.255,47.498 48.200,47.088 47.728 C 46.799 47.396,46.331 46.685,46.048 46.148 C 45.764 45.611,45.532 45.311,45.532 45.480 M76.127 55.562 C 76.412 55.962,76.770 56.366,76.922 56.460 C 77.075 56.555,76.892 56.228,76.515 55.733 C 75.696 54.661,75.388 54.524,76.127 55.562 M93.491 59.690 C 93.623 59.936,93.923 60.294,94.158 60.485 C 94.423 60.700,94.364 60.529,94.003 60.037 C 93.360 59.158,93.119 58.995,93.491 59.690 M116.876 61.261 L 116.157 62.056 116.952 61.337 C 117.694 60.667,117.860 60.465,117.671 60.465 C 117.629 60.465,117.271 60.823,116.876 61.261 M94.976 61.682 C 95.261 62.082,95.619 62.486,95.772 62.580 C 95.925 62.675,95.741 62.348,95.364 61.853 C 94.546 60.781,94.237 60.644,94.976 61.682 M185.677 84.088 L 185.679 102.938 222.215 103.000 C 242.310 103.034,258.752 102.979,258.752 102.877 C 258.752 102.776,242.339 102.721,222.278 102.756 L 185.805 102.818 185.740 84.029 L 185.675 65.239 185.677 84.088 M112.560 65.789 C 112.129 66.292,111.805 66.830,111.935 66.830 C 111.985 66.830,112.270 66.499,112.568 66.095 C 113.158 65.297,113.153 65.099,112.560 65.789 M86.169 69.523 C 86.457 69.927,86.747 70.257,86.814 70.257 C 86.882 70.257,86.701 69.927,86.414 69.523 C 86.126 69.119,85.836 68.788,85.768 68.788 C 85.701 68.788,85.881 69.119,86.169 69.523 M88.127 72.215 C 88.415 72.619,88.705 72.950,88.773 72.950 C 88.840 72.950,88.660 72.619,88.372 72.215 C 88.084 71.812,87.794 71.481,87.727 71.481 C 87.659 71.481,87.840 71.812,88.127 72.215 M238.094 74.976 C 238.178 75.216,238.481 75.532,238.768 75.679 C 239.215 75.909,239.239 75.899,238.934 75.611 C 238.738 75.427,238.435 75.110,238.260 74.908 C 237.984 74.588,237.962 74.597,238.094 74.976 M98.164 86.169 C 98.452 86.573,98.742 86.903,98.809 86.903 C 98.877 86.903,98.696 86.573,98.409 86.169 C 98.121 85.765,97.831 85.435,97.763 85.435 C 97.696 85.435,97.876 85.765,98.164 86.169 M100.482 90.014 C 100.377 90.255,100.241 93.425,100.178 97.057 C 100.079 102.776,100.011 103.704,99.665 103.986 C 99.321 104.266,99.342 104.274,99.816 104.044 C 100.363 103.779,100.367 103.731,100.388 98.217 C 100.399 95.158,100.494 91.995,100.598 91.187 C 100.804 89.596,100.778 89.333,100.482 90.014 M249.946 90.500 C 249.942 90.661,250.187 91.052,250.490 91.369 C 250.793 91.686,250.918 91.775,250.769 91.566 C 250.619 91.358,250.375 90.967,250.225 90.698 C 250.076 90.428,249.950 90.340,249.946 90.500 M251.897 93.268 C 252.185 93.672,252.475 94.002,252.543 94.002 C 252.610 94.002,252.430 93.672,252.142 93.268 C 251.854 92.864,251.564 92.534,251.497 92.534 C 251.429 92.534,251.610 92.864,251.897 93.268 M111.987 97.980 L 111.995 102.938 143.452 102.939 L 174.908 102.940 143.518 102.877 L 112.128 102.813 112.054 97.918 L 111.980 93.023 111.987 97.980 M277.433 102.998 C 279.697 103.039,283.332 103.039,285.511 102.998 C 287.691 102.958,285.838 102.925,281.395 102.925 C 276.952 102.925,275.169 102.958,277.433 102.998 M290.514 103.239 C 291.086 103.291,292.023 103.291,292.595 103.239 C 293.167 103.188,292.699 103.146,291.554 103.146 C 290.410 103.146,289.942 103.188,290.514 103.239 M294.308 103.480 C 294.679 103.536,295.285 103.536,295.655 103.480 C 296.025 103.424,295.722 103.378,294.982 103.378 C 294.241 103.378,293.938 103.424,294.308 103.480 M296.940 103.794 C 297.277 103.902,297.827 103.988,298.164 103.986 C 298.714 103.982,298.701 103.962,298.042 103.794 C 297.006 103.531,296.117 103.531,296.940 103.794 M95.226 105.018 C 94.734 105.176,94.710 105.216,95.104 105.222 C 95.373 105.226,95.814 105.134,96.083 105.018 C 96.707 104.750,96.063 104.750,95.226 105.018 M93.268 105.786 C 92.645 106.127,92.578 106.211,93.023 106.094 C 93.650 105.928,94.793 105.242,94.363 105.290 C 94.232 105.304,93.739 105.527,93.268 105.786 M304.880 105.641 C 305.276 105.847,305.771 105.969,305.982 105.913 C 306.223 105.848,306.167 105.799,305.828 105.781 C 305.533 105.766,305.224 105.643,305.141 105.508 C 305.058 105.373,304.803 105.264,304.576 105.265 C 304.318 105.266,304.433 105.408,304.880 105.641 M90.086 107.344 C 89.918 107.546,89.646 107.711,89.482 107.711 C 89.317 107.711,88.973 107.959,88.716 108.262 C 88.250 108.812,88.250 108.812,88.759 108.384 C 89.038 108.149,89.379 107.956,89.516 107.956 C 89.653 107.956,89.964 107.736,90.208 107.466 C 90.452 107.197,90.592 106.977,90.521 106.977 C 90.449 106.977,90.253 107.142,90.086 107.344 M311.328 108.202 C 312.367 108.835,312.707 108.835,311.750 108.201 C 311.346 107.933,310.906 107.714,310.771 107.714 C 310.636 107.713,310.887 107.933,311.328 108.202 M86.395 110.098 L 85.802 110.771 86.536 110.159 C 86.940 109.823,87.316 109.520,87.373 109.486 C 87.429 109.452,87.365 109.425,87.232 109.425 C 87.098 109.425,86.722 109.728,86.395 110.098 M321.053 115.300 C 322.259 116.512,323.301 117.503,323.368 117.503 C 323.435 117.503,322.504 116.512,321.297 115.300 C 320.091 114.088,319.049 113.097,318.982 113.097 C 318.915 113.097,319.846 114.088,321.053 115.300 M326.430 122.139 C 326.635 122.534,326.913 122.926,327.049 123.010 C 327.185 123.094,327.064 122.771,326.782 122.291 C 326.162 121.240,325.909 121.131,326.430 122.139 M330.250 130.110 C 330.250 130.245,330.407 130.630,330.600 130.967 C 330.792 131.304,330.950 131.469,330.950 131.334 C 330.950 131.200,330.792 130.814,330.600 130.477 C 330.407 130.141,330.250 129.976,330.250 130.110 M157.181 131.300 C 157.237 131.348,157.613 131.462,158.017 131.552 C 158.553 131.672,158.652 131.649,158.384 131.468 C 158.054 131.244,156.935 131.088,157.181 131.300 M258.629 131.468 C 258.288 131.623,258.436 131.645,259.119 131.541 C 259.657 131.459,260.144 131.351,260.200 131.302 C 260.410 131.116,259.099 131.255,258.629 131.468 M332.982 140.269 C 332.982 140.741,333.033 140.933,333.094 140.698 C 333.156 140.462,333.156 140.076,333.094 139.841 C 333.033 139.605,332.982 139.798,332.982 140.269 M333.227 142.228 C 333.227 142.699,333.277 142.892,333.339 142.656 C 333.400 142.420,333.400 142.035,333.339 141.799 C 333.277 141.564,333.227 141.756,333.227 142.228 M116.386 143.758 L 115.667 144.553 116.463 143.834 C 117.204 143.164,117.371 142.962,117.182 142.962 C 117.140 142.962,116.782 143.320,116.386 143.758 M73.302 144.982 L 72.583 145.777 73.378 145.058 C 74.120 144.388,74.286 144.186,74.097 144.186 C 74.055 144.186,73.697 144.544,73.302 144.982 M130.688 144.690 L 130.110 145.194 130.845 144.764 C 131.811 144.198,131.826 144.186,131.524 144.186 C 131.382 144.186,131.006 144.413,130.688 144.690 M128.641 146.053 C 128.201 146.427,128.111 146.576,128.417 146.424 C 128.865 146.201,129.707 145.396,129.467 145.419 C 129.417 145.424,129.045 145.709,128.641 146.053 M114.076 146.634 C 113.788 147.038,113.608 147.368,113.675 147.368 C 113.743 147.368,114.033 147.038,114.321 146.634 C 114.608 146.230,114.789 145.900,114.721 145.900 C 114.654 145.900,114.364 146.230,114.076 146.634 M250.535 147.185 L 249.816 147.980 250.612 147.261 C 251.354 146.591,251.520 146.389,251.331 146.389 C 251.289 146.389,250.931 146.747,250.535 147.185 M168.299 149.082 C 169.505 150.294,170.547 151.285,170.614 151.285 C 170.681 151.285,169.750 150.294,168.543 149.082 C 167.337 147.870,166.295 146.879,166.228 146.879 C 166.161 146.879,167.093 147.870,168.299 149.082 M112.607 148.715 C 112.190 149.321,111.904 149.816,111.972 149.816 C 112.039 149.816,112.435 149.321,112.852 148.715 C 113.269 148.109,113.555 147.613,113.487 147.613 C 113.420 147.613,113.024 148.109,112.607 148.715 M291.677 149.082 C 292.340 149.755,292.938 150.306,293.005 150.306 C 293.072 150.306,292.585 149.755,291.922 149.082 C 291.259 148.409,290.661 147.858,290.594 147.858 C 290.526 147.858,291.014 148.409,291.677 149.082 M124.589 149.755 L 123.745 150.673 124.663 149.830 C 125.518 149.044,125.694 148.837,125.507 148.837 C 125.466 148.837,125.053 149.250,124.589 149.755 M122.841 151.714 C 122.410 152.216,122.087 152.754,122.216 152.754 C 122.266 152.754,122.551 152.424,122.850 152.020 C 123.440 151.222,123.434 151.023,122.841 151.714 M305.998 151.560 C 305.998 151.774,306.755 153.244,306.865 153.244 C 306.918 153.244,306.891 153.051,306.806 152.815 C 306.630 152.329,305.998 151.348,305.998 151.560 M110.390 152.692 C 109.837 153.795,109.845 153.904,110.416 153.050 C 110.712 152.606,110.904 152.193,110.841 152.131 C 110.779 152.068,110.576 152.321,110.390 152.692 M244.126 154.529 C 243.780 154.966,243.292 155.936,243.419 155.936 C 243.478 155.936,243.753 155.551,244.031 155.080 C 244.536 154.223,244.583 153.951,244.126 154.529 M120.536 155.087 C 120.312 155.428,120.174 155.751,120.228 155.806 C 120.283 155.860,120.513 155.581,120.740 155.186 C 121.245 154.306,121.095 154.233,120.536 155.087 M160.088 157.222 C 160.688 157.861,161.211 158.384,161.250 158.384 C 161.434 158.384,161.240 158.165,160.159 157.150 L 158.996 156.059 160.088 157.222 M256.417 157.711 L 255.202 158.996 256.487 157.782 C 257.194 157.113,257.772 156.535,257.772 156.496 C 257.772 156.314,257.546 156.517,256.417 157.711 M118.923 158.331 C 118.435 159.164,117.950 160.888,118.256 160.698 C 118.381 160.621,118.482 160.368,118.482 160.135 C 118.482 159.902,118.701 159.283,118.968 158.759 C 119.531 157.655,119.499 157.348,118.923 158.331 M241.668 159.524 C 241.517 160.015,241.491 160.318,241.610 160.197 C 241.849 159.952,242.221 158.629,242.050 158.629 C 241.991 158.629,241.819 159.032,241.668 159.524 M117.287 163.321 C 117.271 163.546,117.195 163.932,117.117 164.178 C 116.984 164.603,116.991 164.604,117.256 164.191 C 117.410 163.951,117.486 163.565,117.426 163.334 C 117.326 162.955,117.312 162.954,117.287 163.321 M299.793 163.892 C 299.875 164.431,299.983 164.917,300.032 164.973 C 300.218 165.184,300.079 163.873,299.866 163.403 C 299.712 163.061,299.690 163.210,299.793 163.892 M310.216 164.015 C 310.216 164.486,310.266 164.679,310.328 164.443 C 310.389 164.207,310.389 163.822,310.328 163.586 C 310.266 163.351,310.216 163.543,310.216 164.015 M276.010 164.504 C 276.536 165.043,277.021 165.483,277.088 165.483 C 277.156 165.483,276.780 165.043,276.255 164.504 C 275.729 163.966,275.243 163.525,275.176 163.525 C 275.109 163.525,275.484 163.966,276.010 164.504 M106.789 164.504 C 106.789 164.976,106.839 165.168,106.901 164.933 C 106.962 164.697,106.962 164.312,106.901 164.076 C 106.839 163.840,106.789 164.033,106.789 164.504 M240.204 164.749 C 240.204 165.220,240.254 165.413,240.316 165.177 C 240.377 164.942,240.377 164.556,240.316 164.321 C 240.254 164.085,240.204 164.278,240.204 164.749 M116.677 166.260 C 116.318 170.411,116.288 170.941,116.427 170.802 C 116.599 170.630,117.055 164.954,116.909 164.808 C 116.855 164.754,116.751 165.408,116.677 166.260 M310.480 166.340 C 310.481 167.148,310.527 167.449,310.581 167.009 C 310.636 166.569,310.635 165.908,310.579 165.540 C 310.523 165.172,310.478 165.532,310.480 166.340 M288.275 165.851 C 288.363 166.255,288.521 168.127,288.627 170.012 L 288.819 173.439 288.745 169.890 C 288.704 167.938,288.546 166.065,288.393 165.728 C 288.126 165.138,288.122 165.143,288.275 165.851 M300.189 166.218 C 300.189 166.824,300.237 167.072,300.295 166.769 C 300.354 166.466,300.354 165.970,300.295 165.667 C 300.237 165.364,300.189 165.612,300.189 166.218 M239.975 166.952 C 239.975 167.693,240.021 167.996,240.077 167.625 C 240.134 167.255,240.134 166.649,240.077 166.279 C 240.021 165.909,239.975 166.212,239.975 166.952 M72.705 166.784 C 72.705 166.826,73.063 167.184,73.501 167.580 L 74.296 168.299 73.577 167.503 C 72.907 166.761,72.705 166.595,72.705 166.784 M128.341 167.931 C 128.341 168.537,128.389 168.785,128.447 168.482 C 128.505 168.179,128.505 167.684,128.447 167.381 C 128.389 167.078,128.341 167.326,128.341 167.931 M239.743 170.379 C 239.743 171.524,239.785 171.992,239.837 171.420 C 239.888 170.848,239.888 169.911,239.837 169.339 C 239.785 168.767,239.743 169.235,239.743 170.379 M300.688 170.502 C 300.689 171.310,300.735 171.611,300.789 171.171 C 300.844 170.731,300.843 170.070,300.787 169.702 C 300.731 169.334,300.686 169.694,300.688 170.502 M138.381 170.502 C 138.383 171.175,138.430 171.421,138.487 171.049 C 138.543 170.677,138.541 170.126,138.483 169.825 C 138.425 169.524,138.379 169.829,138.381 170.502 M116.608 172.950 C 116.609 174.027,116.652 174.437,116.703 173.861 C 116.755 173.286,116.754 172.404,116.702 171.903 C 116.649 171.402,116.607 171.873,116.608 172.950 M128.293 173.241 C 128.283 173.806,128.361 174.321,128.468 174.387 C 128.574 174.453,128.621 174.101,128.572 173.606 C 128.439 172.251,128.315 172.090,128.293 173.241 M239.978 173.929 C 239.979 174.737,240.025 175.038,240.079 174.598 C 240.134 174.158,240.133 173.497,240.077 173.129 C 240.021 172.761,239.977 173.121,239.978 173.929 M300.189 174.786 C 300.189 175.392,300.237 175.640,300.295 175.337 C 300.354 175.034,300.354 174.538,300.295 174.235 C 300.237 173.932,300.189 174.180,300.189 174.786 M128.813 175.153 C 128.813 175.422,128.901 175.918,129.009 176.255 C 129.164 176.739,129.205 176.765,129.205 176.377 C 129.205 176.108,129.116 175.612,129.009 175.275 C 128.853 174.791,128.813 174.765,128.813 175.153 M116.825 175.765 C 116.825 176.236,116.876 176.429,116.937 176.193 C 116.999 175.958,116.999 175.572,116.937 175.337 C 116.876 175.101,116.825 175.294,116.825 175.765 M152.861 176.561 L 152.142 177.356 152.938 176.637 C 153.679 175.967,153.846 175.765,153.657 175.765 C 153.614 175.765,153.256 176.123,152.861 176.561 M130.746 180.035 C 131.029 180.515,131.360 180.969,131.482 181.044 C 131.603 181.119,131.471 180.787,131.188 180.308 C 130.904 179.828,130.574 179.374,130.452 179.299 C 130.331 179.224,130.463 179.555,130.746 180.035 M132.436 182.291 C 132.436 182.425,132.739 182.801,133.109 183.127 L 133.782 183.721 133.170 182.987 C 132.834 182.583,132.531 182.206,132.497 182.150 C 132.463 182.094,132.436 182.157,132.436 182.291 M134.149 184.165 C 134.149 184.207,134.507 184.565,134.945 184.960 L 135.741 185.679 135.022 184.884 C 134.351 184.142,134.149 183.976,134.149 184.165 M137.944 187.026 C 138.348 187.293,138.788 187.512,138.923 187.513 C 139.058 187.513,138.807 187.294,138.366 187.025 C 137.327 186.391,136.987 186.392,137.944 187.026 M143.246 188.991 C 143.427 189.086,144.510 189.224,145.655 189.297 C 146.984 189.383,147.382 189.361,146.756 189.237 C 145.361 188.960,142.856 188.785,143.246 188.991 M148.409 189.159 C 148.779 189.216,149.385 189.216,149.755 189.159 C 150.125 189.103,149.823 189.057,149.082 189.057 C 148.341 189.057,148.039 189.103,148.409 189.159 M267.381 189.159 C 267.751 189.216,268.357 189.216,268.727 189.159 C 269.097 189.103,268.794 189.057,268.054 189.057 C 267.313 189.057,267.010 189.103,267.381 189.159 M271.787 189.159 C 272.157 189.216,272.763 189.216,273.133 189.159 C 273.504 189.103,273.201 189.057,272.460 189.057 C 271.720 189.057,271.417 189.103,271.787 189.159 M269.829 189.398 C 270.064 189.459,270.450 189.459,270.685 189.398 C 270.921 189.336,270.728 189.286,270.257 189.286 C 269.786 189.286,269.593 189.336,269.829 189.398 M162.326 196.716 C 161.869 197.041,161.599 197.307,161.728 197.307 C 161.856 197.307,162.334 197.032,162.791 196.695 C 163.853 195.912,163.432 195.931,162.326 196.716 M254.556 196.803 C 254.874 197.080,255.250 197.307,255.392 197.307 C 255.693 197.307,255.679 197.295,254.712 196.729 L 253.978 196.299 254.556 196.803 M157.956 198.805 C 157.518 198.931,157.160 199.089,157.160 199.155 C 157.160 199.332,158.469 198.992,158.739 198.744 C 159.006 198.500,159.015 198.499,157.956 198.805 M258.390 198.752 C 258.521 198.881,258.960 199.065,259.364 199.160 C 260.311 199.385,260.098 199.176,259.002 198.806 C 258.534 198.647,258.258 198.623,258.390 198.752 M152.664 200.417 C 152.569 200.511,150.320 200.665,147.666 200.757 L 142.840 200.926 147.613 200.866 C 150.359 200.832,152.647 200.694,152.999 200.541 C 153.365 200.382,153.455 200.270,153.223 200.260 C 153.010 200.252,152.758 200.322,152.664 200.417 M141.554 200.658 C 141.790 200.720,142.176 200.720,142.411 200.658 C 142.647 200.597,142.454 200.546,141.983 200.546 C 141.512 200.546,141.319 200.597,141.554 200.658 M264.813 200.663 C 265.118 200.721,265.558 200.719,265.792 200.658 C 266.026 200.597,265.777 200.549,265.239 200.551 C 264.700 200.554,264.509 200.604,264.813 200.663 M270.257 200.734 L 266.218 200.875 270.012 200.909 C 272.099 200.928,274.302 200.855,274.908 200.747 C 276.188 200.519,276.412 200.520,270.257 200.734 " stroke="none" fill="#ebbcc3" fill-rule="evenodd"></path></g></svg>